M48
; DRILL file {KiCad 7.0.9} date Sun Mar 24 19:39:08 2024
; FORMAT={-:-/ absolute / metric / decimal}
; #@! TF.CreationDate,2024-03-24T19:39:08-04:00
; #@! TF.GenerationSoftware,Kicad,Pcbnew,7.0.9
; #@! TF.FileFunction,Plated,1,4,PTH
FMAT,2
METRIC
; #@! TA.AperFunction,Plated,PTH,ViaDrill
T1C0.200
; #@! TA.AperFunction,Plated,PTH,ComponentDrill
T2C0.203
; #@! TA.AperFunction,Plated,PTH,ViaDrill
T3C0.300
; #@! TA.AperFunction,Plated,PTH,ViaDrill
T4C0.400
; #@! TA.AperFunction,Plated,PTH,ViaDrill
T5C0.500
; #@! TA.AperFunction,Plated,PTH,ComponentDrill
T6C0.600
; #@! TA.AperFunction,Plated,PTH,ComponentDrill
T7C0.650
; #@! TA.AperFunction,Plated,PTH,ComponentDrill
T8C0.813
; #@! TA.AperFunction,Plated,PTH,ComponentDrill
T9C0.990
; #@! TA.AperFunction,Plated,PTH,ComponentDrill
T10C1.000
; #@! TA.AperFunction,Plated,PTH,ComponentDrill
T11C1.295
; #@! TA.AperFunction,Plated,PTH,ComponentDrill
T12C1.700
; #@! TA.AperFunction,Plated,PTH,ComponentDrill
T13C2.700
; #@! TA.AperFunction,Plated,PTH,ViaDrill
T14C5.105
%
G90
G05
T1
X52.07Y-114.3
X52.197Y-111.633
X53.848Y-111.76
X53.975Y-114.3
X54.102Y-139.827
X54.102Y-157.48
X54.864Y-110.871
X55.758Y-88.138
X56.134Y-90.678
X57.023Y-78.359
X57.404Y-90.678
X58.268Y-101.6
X58.268Y-102.972
X58.268Y-102.972
X58.979Y-100.94
X58.979Y-102.311
X58.979Y-103.683
X59.436Y-123.952
X59.639Y-101.6
X59.639Y-102.972
X59.82Y-179.61
X59.944Y-87.376
X60.35Y-100.889
X60.35Y-102.311
X60.35Y-102.311
X60.35Y-103.683
X61.062Y-101.6
X61.062Y-102.972
X61.062Y-102.972
X61.214Y-86.868
X61.341Y-78.359
X61.7Y-137.2
X61.722Y-148.717
X62.332Y-151.13
X62.484Y-85.954
X62.484Y-138.405
X62.95Y-137.05
X62.992Y-152.4
X63.373Y-90.678
X63.373Y-93.853
X63.491Y-149.86
X63.55Y-135.55
X64.516Y-88.862
X65.075Y-94.869
X66.04Y-69.596
X67.564Y-85.852
X67.564Y-108.458
X67.564Y-110.744
X69.596Y-137.541
X69.741Y-132.41
X69.85Y-110.744
X70.104Y-74.422
X70.104Y-83.058
X70.295Y-112.42
X70.716Y-132.75
X70.866Y-113.538
X71.374Y-105.41
X71.374Y-112.065
X71.5Y-85.5
X71.5Y-132.75
X71.75Y-91.5
X71.75Y-131.851
X72.054Y-86.0
X72.25Y-90.945
X72.39Y-111.557
X72.517Y-137.414
X72.626Y-135.576
X72.898Y-84.582
X72.898Y-94.869
X73.382Y-140.231
X74.422Y-85.852
X74.422Y-108.458
X75.75Y-114.75
X76.2Y-89.408
X76.5Y-114.195
X77.0Y-89.75
X77.5Y-90.25
X77.709Y-91.0
X78.0Y-113.491
X78.232Y-105.41
X78.384Y-112.903
X78.74Y-112.268
X80.645Y-141.859
X80.8Y-126.873
X80.862Y-114.644
X81.25Y-127.5
X81.5Y-114.046
X83.25Y-176.525
X83.566Y-193.04
X83.82Y-159.639
X83.947Y-141.986
X84.074Y-139.954
X85.852Y-120.904
X91.948Y-59.182
X91.948Y-60.452
X92.964Y-61.722
X93.98Y-62.992
X94.996Y-71.882
X96.774Y-88.9
X98.857Y-160.589
X99.314Y-193.548
X99.949Y-88.9
X103.759Y-88.9
X105.664Y-93.98
X108.966Y-65.532
X109.855Y-165.76
X110.5Y-70.75
X111.76Y-70.358
X112.522Y-102.743
X113.5Y-69.0
X113.5Y-79.75
X113.538Y-85.598
X113.538Y-86.36
X113.658Y-89.086
X113.665Y-87.63
X113.927Y-88.438
X114.054Y-72.004
X114.554Y-87.122
X114.75Y-72.75
X115.062Y-92.837
X115.5Y-73.304
X116.205Y-90.043
X116.25Y-74.0
X117.094Y-89.25
X117.094Y-96.266
X117.856Y-91.694
X118.237Y-181.102
X119.126Y-87.884
X119.761Y-144.145
X120.0Y-74.554
X120.75Y-75.184
X121.0Y-87.122
X121.333Y-80.014
X121.793Y-86.36
X122.098Y-176.591
X122.809Y-102.743
X125.857Y-64.008
X127.0Y-85.598
X127.0Y-135.636
X128.016Y-65.532
X129.0Y-69.25
X129.0Y-88.609
X129.286Y-95.0
X129.75Y-69.75
X130.0Y-95.736
X132.436Y-80.518
X134.874Y-138.557
X136.957Y-80.594
X138.1Y-82.956
X140.843Y-86.233
X140.919Y-84.074
X141.461Y-82.533
X141.859Y-83.947
X141.859Y-85.852
X145.161Y-166.116
X145.796Y-97.003
X147.066Y-135.636
X147.066Y-153.162
X147.25Y-96.5
X148.7Y-166.65
X148.844Y-169.164
X150.114Y-96.52
X150.368Y-157.734
X150.66Y-88.48
X150.66Y-92.9
X150.747Y-87.26
X150.749Y-85.344
X150.876Y-81.28
X150.876Y-82.677
X150.876Y-83.947
X150.876Y-86.47
X151.24Y-166.76
X151.5Y-81.846
X151.5Y-83.312
X152.35Y-167.53
X152.451Y-87.884
X152.634Y-150.114
X153.162Y-89.662
X153.416Y-156.464
X154.305Y-166.116
X154.686Y-91.44
X154.94Y-71.12
X154.94Y-84.582
X155.702Y-85.852
X155.87Y-162.52
X155.87Y-169.11
X155.956Y-87.142
X156.144Y-149.032
X156.21Y-157.734
X157.099Y-89.662
X157.15Y-153.873
X158.14Y-87.884
X158.191Y-153.924
X158.369Y-96.483
X158.479Y-87.105
X158.496Y-71.792
X159.004Y-89.662
X159.004Y-95.25
X159.004Y-151.13
X159.258Y-154.762
X159.385Y-72.517
X160.655Y-81.28
X161.29Y-153.162
X161.29Y-156.464
X161.544Y-170.688
X161.595Y-154.508
X161.63Y-162.55
X162.025Y-95.758
X162.56Y-75.819
X162.75Y-87.024
X163.5Y-84.501
X164.0Y-85.852
X164.084Y-159.512
X164.28Y-164.0
X164.643Y-146.253
X164.694Y-145.288
X164.719Y-77.089
X165.481Y-81.661
X165.62Y-162.81
X165.659Y-144.272
X165.659Y-145.288
X165.659Y-145.288
X165.659Y-146.253
X165.659Y-146.253
X165.659Y-147.269
X166.675Y-144.272
X166.675Y-145.288
X166.675Y-146.253
X166.675Y-147.269
X166.675Y-147.269
X166.76Y-161.61
X166.98Y-152.73
X167.64Y-75.819
X167.64Y-145.288
X167.64Y-146.253
X169.316Y-132.283
X169.799Y-77.597
X170.561Y-82.677
X171.704Y-133.858
X171.831Y-157.48
X172.72Y-75.819
X172.974Y-135.382
X173.482Y-118.872
X173.482Y-123.19
X173.5Y-168.58
X173.51Y-162.64
X173.56Y-165.61
X174.879Y-87.249
X174.879Y-129.921
X175.133Y-78.105
X175.514Y-138.557
X175.641Y-83.312
X176.657Y-85.344
X177.8Y-75.819
X177.978Y-128.422
X179.251Y-106.426
X179.324Y-121.412
X179.832Y-78.74
X180.467Y-83.947
X181.102Y-117.856
X181.61Y-122.301
X182.88Y-75.819
X183.134Y-117.856
X184.785Y-86.36
X184.912Y-79.248
X186.225Y-119.9
X187.96Y-75.819
X188.47Y-145.032
X188.849Y-122.809
X188.849Y-123.571
X188.849Y-124.333
X189.738Y-121.412
X190.362Y-123.444
X190.881Y-122.809
X190.881Y-125.222
X191.008Y-118.872
X191.77Y-137.16
X192.151Y-124.333
X193.929Y-125.222
X193.983Y-132.842
X194.31Y-100.076
X194.31Y-107.696
X196.85Y-149.098
T2
X108.323Y-83.179
X108.323Y-84.279
X108.323Y-85.379
X108.323Y-86.479
X108.323Y-87.579
X109.423Y-83.179
X109.423Y-87.579
X109.423Y-84.279
X109.423Y-85.379
X109.423Y-86.479
X110.523Y-83.179
X110.523Y-84.279
X110.523Y-85.379
X110.523Y-86.479
X110.523Y-87.579
X145.204Y-82.72
X145.204Y-83.82
X145.204Y-84.92
X145.204Y-86.02
X145.204Y-87.12
X146.304Y-82.72
X146.304Y-87.12
X146.304Y-83.82
X146.304Y-84.92
X146.304Y-86.02
X147.404Y-82.72
X147.404Y-83.82
X147.404Y-84.92
X147.404Y-86.02
X147.404Y-87.12
T3
X56.363Y-125.141
X57.025Y-128.825
X59.05Y-147.425
X59.055Y-146.177
X59.055Y-148.717
X59.055Y-149.86
X59.055Y-151.13
X59.055Y-152.4
X63.346Y-174.214
X66.37Y-106.197
X66.548Y-78.511
X69.498Y-173.746
X70.308Y-175.786
X70.318Y-176.916
X70.338Y-174.786
X70.358Y-173.736
X71.54Y-176.47
X71.55Y-177.31
X72.68Y-176.47
X72.68Y-177.3
X73.67Y-176.5
X73.68Y-177.33
X74.72Y-176.49
X74.73Y-177.35
X75.336Y-73.406
X78.359Y-176.225
X78.765Y-97.46
X78.892Y-95.733
X79.959Y-92.431
X80.62Y-81.813
X95.656Y-85.217
X104.369Y-85.395
X104.762Y-84.641
X105.156Y-172.212
X116.661Y-171.375
X117.577Y-78.842
X120.167Y-78.892
X126.238Y-143.891
X126.746Y-137.287
X126.746Y-142.494
X128.143Y-142.494
X128.27Y-143.844
X132.105Y-65.202
X135.026Y-63.068
X147.32Y-63.881
X149.425Y-148.175
X152.15Y-145.171
X153.924Y-58.293
X154.559Y-137.287
X161.417Y-58.166
X162.585Y-61.341
X175.514Y-97.79
X177.189Y-164.06
X177.189Y-167.21
X181.966Y-65.151
X189.687Y-63.068
X194.412Y-101.092
X194.437Y-105.943
T4
X51.562Y-192.786
X51.599Y-165.862
X52.324Y-90.678
X52.324Y-192.024
X52.394Y-165.146
X53.048Y-164.338
X53.086Y-191.008
X56.5Y-168.0
X56.5Y-169.0
X56.5Y-169.0
X56.5Y-170.0
X57.5Y-168.0
X57.5Y-169.0
X57.5Y-169.0
X57.5Y-170.0
X57.5Y-171.0
X58.5Y-168.0
X58.5Y-169.0
X58.5Y-170.0
X58.5Y-171.0
X59.5Y-168.0
X59.5Y-169.0
X59.5Y-170.0
X59.5Y-171.0
X60.5Y-168.0
X60.5Y-169.0
X60.5Y-170.0
X60.5Y-171.0
X60.5Y-171.0
X61.5Y-168.0
X61.5Y-169.0
X61.5Y-169.0
X61.5Y-170.0
X61.5Y-171.0
X67.256Y-164.338
X67.31Y-146.05
X67.981Y-146.85
X68.072Y-165.1
X68.199Y-141.605
X68.834Y-147.574
X69.088Y-165.862
X71.374Y-191.008
X71.755Y-106.553
X72.5Y-150.0
X72.5Y-152.5
X72.5Y-155.0
X73.406Y-192.786
X73.66Y-115.951
X74.168Y-192.024
X74.93Y-127.0
X75.0Y-150.0
X75.0Y-152.5
X75.0Y-155.0
X75.184Y-122.936
X75.565Y-115.951
X75.946Y-66.04
X76.708Y-124.46
X77.325Y-116.79
X77.5Y-150.0
X77.5Y-150.0
X77.5Y-152.5
X77.5Y-155.0
X77.5Y-155.0
X78.105Y-127.635
X80.0Y-150.0
X80.0Y-152.5
X80.0Y-155.0
X80.137Y-116.84
X80.518Y-56.134
X81.28Y-68.453
X82.5Y-150.0
X82.5Y-152.5
X82.5Y-155.0
X83.82Y-63.881
X84.328Y-115.57
X84.328Y-117.983
X85.0Y-150.0
X85.0Y-150.0
X85.0Y-152.5
X85.0Y-155.0
X86.614Y-87.884
X86.614Y-109.728
X87.503Y-113.538
X87.63Y-88.646
X87.63Y-110.49
X87.63Y-139.7
X87.63Y-147.574
X88.392Y-138.684
X88.392Y-146.812
X88.646Y-89.408
X88.646Y-111.215
X89.154Y-137.668
X89.154Y-146.05
X90.297Y-52.705
X91.643Y-167.767
X91.948Y-84.582
X91.948Y-85.852
X91.952Y-83.562
X92.456Y-86.868
X96.266Y-146.05
X96.647Y-82.677
X96.774Y-86.995
X97.917Y-141.732
X99.314Y-110.49
X99.314Y-139.7
X99.5Y-155.0
X99.5Y-156.5
X99.822Y-80.899
X99.949Y-86.995
X100.33Y-109.728
X100.33Y-138.684
X100.584Y-84.328
X101.092Y-111.252
X101.092Y-137.668
X101.981Y-52.705
X102.0Y-155.0
X102.0Y-156.5
X102.997Y-168.148
X103.226Y-83.185
X103.251Y-87.681
X104.5Y-155.0
X104.5Y-156.5
X105.029Y-52.705
X105.156Y-86.36
X105.283Y-82.493
X107.0Y-155.0
X107.0Y-155.0
X107.0Y-156.5
X107.0Y-156.5
X107.721Y-168.885
X109.0Y-128.5
X109.0Y-130.0
X109.0Y-131.5
X109.0Y-133.0
X109.0Y-134.5
X109.0Y-136.0
X109.0Y-137.5
X109.0Y-139.0
X109.0Y-140.5
X109.0Y-143.5
X109.0Y-143.5
X109.474Y-75.692
X109.5Y-155.0
X109.5Y-156.5
X109.5Y-156.5
X110.5Y-128.5
X110.5Y-130.0
X110.5Y-131.5
X110.5Y-131.5
X110.5Y-131.5
X110.5Y-133.0
X110.5Y-134.5
X110.5Y-136.0
X110.5Y-137.5
X110.5Y-139.0
X110.5Y-140.5
X110.5Y-143.5
X111.76Y-100.584
X111.76Y-150.622
X112.0Y-155.0
X112.0Y-155.0
X112.0Y-156.5
X112.395Y-79.629
X112.776Y-136.398
X112.776Y-146.304
X113.792Y-143.256
X114.5Y-155.0
X114.5Y-156.5
X117.0Y-155.0
X117.0Y-155.0
X117.0Y-156.5
X117.983Y-141.007
X118.11Y-52.832
X119.38Y-174.728
X119.5Y-155.0
X119.5Y-156.5
X120.777Y-100.584
X120.777Y-173.228
X121.158Y-145.034
X121.463Y-168.961
X122.0Y-155.0
X122.0Y-156.5
X122.174Y-140.97
X123.444Y-168.153
X123.952Y-93.726
X124.5Y-155.0
X124.5Y-156.5
X124.587Y-59.182
X124.968Y-168.153
X125.222Y-142.494
X125.476Y-169.672
X125.857Y-59.182
X126.238Y-170.688
X127.0Y-155.0
X127.0Y-156.5
X127.0Y-156.5
X127.127Y-59.182
X127.635Y-147.574
X127.635Y-170.688
X128.016Y-93.726
X128.016Y-139.954
X128.27Y-145.034
X128.27Y-146.304
X128.397Y-59.182
X128.778Y-136.398
X129.0Y-155.0
X129.0Y-156.5
X129.54Y-55.753
X130.81Y-59.563
X134.62Y-89.204
X134.696Y-83.945
X134.696Y-87.172
X135.001Y-126.873
X135.81Y-150.59
X135.92Y-167.53
X136.271Y-145.034
X136.398Y-142.494
X136.652Y-143.944
X136.652Y-147.574
X136.906Y-146.304
X137.287Y-54.61
X137.922Y-89.204
X137.947Y-87.299
X138.557Y-146.304
X138.557Y-152.527
X139.319Y-145.034
X139.319Y-155.067
X140.081Y-127.635
X140.462Y-143.944
X140.538Y-154.965
X140.589Y-52.832
X141.224Y-89.154
X141.605Y-142.494
X141.605Y-149.987
X142.113Y-93.853
X144.399Y-78.994
X145.034Y-129.54
X145.034Y-152.908
X145.288Y-71.12
X145.796Y-128.016
X146.177Y-74.803
X149.225Y-79.121
X151.892Y-92.583
X152.146Y-180.594
X152.4Y-52.832
X153.924Y-172.847
X154.813Y-52.832
X157.226Y-113.919
X157.353Y-118.745
X158.75Y-199.898
X160.401Y-138.43
X162.814Y-135.255
X163.957Y-139.319
X166.243Y-52.832
X167.005Y-200.152
X167.386Y-195.326
X168.021Y-135.255
X168.148Y-118.872
X168.656Y-128.524
X168.91Y-126.492
X170.434Y-107.95
X170.434Y-116.332
X171.323Y-127.889
X171.323Y-139.282
X173.228Y-56.515
X174.244Y-141.732
X175.133Y-142.494
X177.165Y-199.898
X181.61Y-145.032
X182.052Y-154.112
X182.88Y-159.512
X188.976Y-160.147
X190.881Y-152.273
X191.008Y-154.178
T5
X62.281Y-172.544
X66.116Y-169.57
X66.14Y-172.544
X67.12Y-173.369
X70.05Y-171.511
X71.501Y-174.625
X71.907Y-180.238
X74.524Y-168.478
X77.597Y-172.593
X80.035Y-195.224
X80.899Y-180.315
X80.95Y-178.385
X80.95Y-182.245
X85.242Y-169.648
X86.766Y-186.004
X91.44Y-188.341
X102.21Y-179.857
T8
X71.397Y-201.207
X73.397Y-201.207
X75.397Y-201.207
X77.397Y-201.207
X78.55Y-52.705
X80.55Y-52.705
X82.55Y-52.705
X84.55Y-52.705
X93.06Y-52.705
X95.06Y-52.705
X97.06Y-52.705
X99.06Y-52.705
X107.76Y-52.705
X109.76Y-52.705
X111.76Y-52.705
X113.76Y-52.705
X143.32Y-52.793
X145.32Y-52.793
X147.32Y-52.793
X149.32Y-52.793
X157.553Y-52.832
X159.553Y-52.832
X161.553Y-52.832
X163.553Y-52.832
X171.26Y-52.832
X173.26Y-52.832
X175.26Y-52.832
X177.26Y-52.832
T9
X73.95Y-75.49
X73.95Y-81.99
X78.45Y-75.49
X78.45Y-81.99
X89.19Y-113.59
X89.19Y-120.09
X93.69Y-113.59
X93.69Y-120.09
X145.705Y-174.1
X145.705Y-180.6
X150.205Y-174.1
X150.205Y-180.6
X192.822Y-152.25
X192.822Y-158.75
X197.322Y-152.25
X197.322Y-158.75
T10
X54.5Y-119.2
X57.04Y-119.2
X59.58Y-119.2
X62.12Y-119.2
X63.5Y-66.04
X64.66Y-119.2
X66.04Y-66.04
X67.2Y-119.2
X68.58Y-66.04
X71.12Y-66.04
X73.66Y-66.04
X81.28Y-66.04
X83.82Y-66.04
X98.933Y-164.46
X98.933Y-167.0
X99.441Y-186.558
X99.441Y-189.098
X127.762Y-165.613
X127.762Y-168.153
X132.461Y-165.613
X132.461Y-168.153
X137.668Y-119.883
X137.668Y-122.423
X142.748Y-119.883
X142.748Y-122.423
X162.56Y-68.58
X162.56Y-71.12
X162.56Y-73.66
X167.64Y-68.58
X167.64Y-71.12
X167.64Y-73.66
X169.545Y-184.036
X169.545Y-186.576
X172.72Y-68.58
X172.72Y-71.12
X172.72Y-73.66
X173.482Y-184.036
X173.482Y-186.576
X177.8Y-68.58
X177.8Y-71.12
X177.8Y-73.66
X182.88Y-68.58
X182.88Y-71.12
X182.88Y-73.66
X187.96Y-68.58
X187.96Y-71.12
X187.96Y-73.66
T11
X88.392Y-199.263
X93.392Y-199.263
T12
X65.89Y-55.88
X69.85Y-55.88
X184.762Y-55.626
X188.722Y-55.626
T13
X107.652Y-186.532
X114.852Y-186.532
T14
X57.15Y-57.15
X57.15Y-196.85
X196.85Y-57.15
X196.85Y-196.85
T6
X104.502Y-193.082G85X104.502Y-191.982
G05
X118.002Y-193.082G85X118.002Y-191.982
G05
T7
X54.037Y-122.78G85X53.237Y-122.78
G05
X54.037Y-131.42G85X53.237Y-131.42
G05
X58.237Y-122.78G85X57.337Y-122.78
G05
X58.237Y-131.42G85X57.337Y-131.42
G05
X195.8Y-99.28G85X196.7Y-99.28
G05
X195.8Y-107.92G85X196.7Y-107.92
G05
X200.0Y-99.28G85X200.8Y-99.28
G05
X200.0Y-107.92G85X200.8Y-107.92
G05
T0
M30
