%TF.GenerationSoftware,KiCad,Pcbnew,7.0.9*%
%TF.CreationDate,2024-03-24T19:40:24-04:00*%
%TF.ProjectId,CSTAR,43535441-522e-46b6-9963-61645f706362,rev?*%
%TF.SameCoordinates,Original*%
%TF.FileFunction,Soldermask,Bot*%
%TF.FilePolarity,Negative*%
%FSLAX46Y46*%
G04 Gerber Fmt 4.6, Leading zero omitted, Abs format (unit mm)*
G04 Created by KiCad (PCBNEW 7.0.9) date 2024-03-24 19:40:24*
%MOMM*%
%LPD*%
G01*
G04 APERTURE LIST*
G04 Aperture macros list*
%AMRoundRect*
0 Rectangle with rounded corners*
0 $1 Rounding radius*
0 $2 $3 $4 $5 $6 $7 $8 $9 X,Y pos of 4 corners*
0 Add a 4 corners polygon primitive as box body*
4,1,4,$2,$3,$4,$5,$6,$7,$8,$9,$2,$3,0*
0 Add four circle primitives for the rounded corners*
1,1,$1+$1,$2,$3*
1,1,$1+$1,$4,$5*
1,1,$1+$1,$6,$7*
1,1,$1+$1,$8,$9*
0 Add four rect primitives between the rounded corners*
20,1,$1+$1,$2,$3,$4,$5,0*
20,1,$1+$1,$4,$5,$6,$7,0*
20,1,$1+$1,$6,$7,$8,$9,0*
20,1,$1+$1,$8,$9,$2,$3,0*%
G04 Aperture macros list end*
%ADD10R,1.700000X1.700000*%
%ADD11O,1.700000X1.700000*%
%ADD12C,0.700000*%
%ADD13O,2.354000X1.254000*%
%ADD14O,2.054000X1.254000*%
%ADD15C,1.320800*%
%ADD16C,0.499999*%
%ADD17RoundRect,0.102000X-0.749000X0.749000X-0.749000X-0.749000X0.749000X-0.749000X0.749000X0.749000X0*%
%ADD18C,1.702000*%
%ADD19RoundRect,0.102000X1.500000X1.500000X-1.500000X1.500000X-1.500000X-1.500000X1.500000X-1.500000X0*%
%ADD20C,3.204000*%
%ADD21RoundRect,0.102000X1.858000X1.858000X-1.858000X1.858000X-1.858000X-1.858000X1.858000X-1.858000X0*%
%ADD22C,3.920000*%
%ADD23O,1.404000X2.604000*%
%ADD24C,1.803400*%
%ADD25RoundRect,0.102000X0.749000X-0.749000X0.749000X0.749000X-0.749000X0.749000X-0.749000X-0.749000X0*%
G04 APERTURE END LIST*
D10*
%TO.C,J25*%
X54500000Y-119200000D03*
D11*
X57040000Y-119200000D03*
X59580000Y-119200000D03*
X62120000Y-119200000D03*
X64660000Y-119200000D03*
X67200000Y-119200000D03*
%TD*%
D12*
%TO.C,J31*%
X57287500Y-124210000D03*
X57287500Y-129990000D03*
D13*
X57787500Y-122780000D03*
X57787500Y-131420000D03*
D14*
X53637500Y-122780000D03*
X53637500Y-131420000D03*
%TD*%
%TO.C,J27*%
X200400000Y-99280000D03*
X200400000Y-107920000D03*
D13*
X196250000Y-99280000D03*
X196250000Y-107920000D03*
D12*
X196750000Y-100710000D03*
X196750000Y-106490000D03*
%TD*%
D10*
%TO.C,J10*%
X162560000Y-68580000D03*
D11*
X162560000Y-71120000D03*
X162560000Y-73660000D03*
%TD*%
D15*
%TO.C,J18*%
X143320000Y-52793000D03*
X145319999Y-52793000D03*
X147320000Y-52793000D03*
X149319998Y-52793000D03*
%TD*%
D10*
%TO.C,J2*%
X132461000Y-168153000D03*
D11*
X132461000Y-165613000D03*
%TD*%
D10*
%TO.C,J22*%
X137668000Y-119883000D03*
D11*
X137668000Y-122423000D03*
%TD*%
D16*
%TO.C,U2*%
X145203997Y-82719999D03*
X145203997Y-83820000D03*
X145203997Y-84920000D03*
X145203997Y-86020000D03*
X145203997Y-87120001D03*
X146303997Y-82719999D03*
X146303997Y-87120001D03*
X146304000Y-83820000D03*
X146304000Y-84920000D03*
X146304000Y-86020000D03*
X147403997Y-82719999D03*
X147403997Y-83820000D03*
X147403997Y-84920000D03*
X147403997Y-86020000D03*
X147403997Y-87120001D03*
%TD*%
D15*
%TO.C,J17*%
X157553401Y-52832000D03*
X159553400Y-52832000D03*
X161553401Y-52832000D03*
X163553399Y-52832000D03*
%TD*%
D10*
%TO.C,J3*%
X98933000Y-164460000D03*
D11*
X98933000Y-167000000D03*
%TD*%
D15*
%TO.C,J11*%
X171260000Y-52832000D03*
X173259999Y-52832000D03*
X175260000Y-52832000D03*
X177259998Y-52832000D03*
%TD*%
D10*
%TO.C,J20*%
X142748000Y-119883000D03*
D11*
X142748000Y-122423000D03*
%TD*%
D10*
%TO.C,J6*%
X173482000Y-186576000D03*
D11*
X173482000Y-184036000D03*
%TD*%
D10*
%TO.C,J5*%
X169545000Y-186576000D03*
D11*
X169545000Y-184036000D03*
%TD*%
D10*
%TO.C,J15*%
X167640000Y-68580000D03*
D11*
X167640000Y-71120000D03*
X167640000Y-73660000D03*
%TD*%
D10*
%TO.C,J8*%
X182880000Y-68580000D03*
D11*
X182880000Y-71120000D03*
X182880000Y-73660000D03*
%TD*%
D17*
%TO.C,SW4*%
X150205000Y-174100000D03*
D18*
X150205000Y-180600000D03*
X145705000Y-174100000D03*
X145705000Y-180600000D03*
%TD*%
D16*
%TO.C,U3*%
X108323200Y-83179198D03*
X108323200Y-84279199D03*
X108323200Y-85379199D03*
X108323200Y-86479199D03*
X108323200Y-87579200D03*
X109423200Y-83179198D03*
X109423200Y-87579200D03*
X109423203Y-84279199D03*
X109423203Y-85379199D03*
X109423203Y-86479199D03*
X110523200Y-83179198D03*
X110523200Y-84279199D03*
X110523200Y-85379199D03*
X110523200Y-86479199D03*
X110523200Y-87579200D03*
%TD*%
D10*
%TO.C,J1*%
X99441000Y-186558000D03*
D11*
X99441000Y-189098000D03*
%TD*%
D15*
%TO.C,J19*%
X93060002Y-52705000D03*
X95060001Y-52705000D03*
X97060002Y-52705000D03*
X99060000Y-52705000D03*
%TD*%
D10*
%TO.C,J9*%
X172720000Y-68580000D03*
D11*
X172720000Y-71120000D03*
X172720000Y-73660000D03*
%TD*%
D15*
%TO.C,J12*%
X78550000Y-52705000D03*
X80549999Y-52705000D03*
X82550000Y-52705000D03*
X84549998Y-52705000D03*
%TD*%
D19*
%TO.C,X2*%
X188722000Y-55626000D03*
D20*
X184762000Y-55626000D03*
%TD*%
D19*
%TO.C,X1*%
X69850000Y-55880000D03*
D20*
X65890000Y-55880000D03*
%TD*%
D15*
%TO.C,J29*%
X77396599Y-201207001D03*
X75396600Y-201207001D03*
X73396599Y-201207001D03*
X71396601Y-201207001D03*
%TD*%
%TO.C,J21*%
X107760000Y-52705000D03*
X109759999Y-52705000D03*
X111760000Y-52705000D03*
X113759998Y-52705000D03*
%TD*%
D21*
%TO.C,J4*%
X107652000Y-186532000D03*
D22*
X114852000Y-186532000D03*
D23*
X104502000Y-192532000D03*
X118002000Y-192532000D03*
%TD*%
D10*
%TO.C,J23*%
X127762000Y-168153000D03*
D11*
X127762000Y-165613000D03*
%TD*%
D24*
%TO.C,J30*%
X93392000Y-199263000D03*
X88392000Y-199263000D03*
%TD*%
D10*
%TO.C,J14*%
X177800000Y-68580000D03*
D11*
X177800000Y-71120000D03*
X177800000Y-73660000D03*
%TD*%
D10*
%TO.C,J16*%
X187960000Y-68580000D03*
D11*
X187960000Y-71120000D03*
X187960000Y-73660000D03*
%TD*%
D25*
%TO.C,SW1*%
X89190000Y-120090000D03*
D18*
X89190000Y-113590000D03*
X93690000Y-120090000D03*
X93690000Y-113590000D03*
%TD*%
D10*
%TO.C,J24*%
X83820000Y-66040000D03*
D11*
X81280000Y-66040000D03*
%TD*%
D25*
%TO.C,SW2*%
X73950000Y-81990000D03*
D18*
X73950000Y-75490000D03*
X78450000Y-81990000D03*
X78450000Y-75490000D03*
%TD*%
D10*
%TO.C,J13*%
X63500000Y-66040000D03*
D11*
X66040000Y-66040000D03*
X68580000Y-66040000D03*
X71120000Y-66040000D03*
X73660000Y-66040000D03*
%TD*%
D25*
%TO.C,SW3*%
X192822000Y-158750000D03*
D18*
X192822000Y-152250000D03*
X197322000Y-158750000D03*
X197322000Y-152250000D03*
%TD*%
M02*
