%TF.GenerationSoftware,KiCad,Pcbnew,7.0.9*%
%TF.CreationDate,2024-03-20T16:59:47-04:00*%
%TF.ProjectId,CSTAR,43535441-522e-46b6-9963-61645f706362,rev?*%
%TF.SameCoordinates,Original*%
%TF.FileFunction,Drillmap*%
%TF.FilePolarity,Positive*%
%FSLAX45Y45*%
G04 Gerber Fmt 4.5, Leading zero omitted, Abs format (unit mm)*
G04 Created by KiCad (PCBNEW 7.0.9) date 2024-03-20 16:59:47*
%MOMM*%
%LPD*%
G01*
G04 APERTURE LIST*
%ADD10C,0.100000*%
%ADD11C,0.200000*%
G04 APERTURE END LIST*
D10*
X5080000Y-19685000D02*
G75*
G03*
X5715000Y-20320000I635000J0D01*
G01*
X19685000Y-20320000D02*
G75*
G03*
X20320000Y-19685000I0J635000D01*
G01*
X19685000Y-5080000D02*
X5715000Y-5080000D01*
X5715000Y-5080000D02*
G75*
G03*
X5080000Y-5715000I0J-635000D01*
G01*
X5080000Y-5715000D02*
X5080000Y-19685000D01*
X5715000Y-20320000D02*
X19685000Y-20320000D01*
X20320000Y-5715000D02*
G75*
G03*
X19685000Y-5080000I-635000J0D01*
G01*
X20320000Y-19685000D02*
X20320000Y-5715000D01*
D11*
D10*
X5696250Y-12392200D02*
X5756250Y-12452200D01*
X5756250Y-12392200D02*
X5696250Y-12452200D01*
X5696250Y-12970200D02*
X5756250Y-13030200D01*
X5756250Y-12970200D02*
X5696250Y-13030200D01*
X19635000Y-10041400D02*
X19695000Y-10101400D01*
X19695000Y-10041400D02*
X19635000Y-10101400D01*
X19635000Y-10619400D02*
X19695000Y-10679400D01*
X19695000Y-10619400D02*
X19635000Y-10679400D01*
D11*
X5335777Y-20636484D02*
X5335777Y-20436484D01*
X5335777Y-20436484D02*
X5383396Y-20436484D01*
X5383396Y-20436484D02*
X5411967Y-20446008D01*
X5411967Y-20446008D02*
X5431015Y-20465055D01*
X5431015Y-20465055D02*
X5440539Y-20484103D01*
X5440539Y-20484103D02*
X5450063Y-20522198D01*
X5450063Y-20522198D02*
X5450063Y-20550770D01*
X5450063Y-20550770D02*
X5440539Y-20588865D01*
X5440539Y-20588865D02*
X5431015Y-20607912D01*
X5431015Y-20607912D02*
X5411967Y-20626960D01*
X5411967Y-20626960D02*
X5383396Y-20636484D01*
X5383396Y-20636484D02*
X5335777Y-20636484D01*
X5535777Y-20636484D02*
X5535777Y-20503150D01*
X5535777Y-20541246D02*
X5545301Y-20522198D01*
X5545301Y-20522198D02*
X5554824Y-20512674D01*
X5554824Y-20512674D02*
X5573872Y-20503150D01*
X5573872Y-20503150D02*
X5592920Y-20503150D01*
X5659586Y-20636484D02*
X5659586Y-20503150D01*
X5659586Y-20436484D02*
X5650062Y-20446008D01*
X5650062Y-20446008D02*
X5659586Y-20455531D01*
X5659586Y-20455531D02*
X5669110Y-20446008D01*
X5669110Y-20446008D02*
X5659586Y-20436484D01*
X5659586Y-20436484D02*
X5659586Y-20455531D01*
X5783396Y-20636484D02*
X5764348Y-20626960D01*
X5764348Y-20626960D02*
X5754824Y-20607912D01*
X5754824Y-20607912D02*
X5754824Y-20436484D01*
X5888158Y-20636484D02*
X5869110Y-20626960D01*
X5869110Y-20626960D02*
X5859586Y-20607912D01*
X5859586Y-20607912D02*
X5859586Y-20436484D01*
X6116729Y-20636484D02*
X6116729Y-20436484D01*
X6116729Y-20436484D02*
X6183396Y-20579341D01*
X6183396Y-20579341D02*
X6250062Y-20436484D01*
X6250062Y-20436484D02*
X6250062Y-20636484D01*
X6431015Y-20636484D02*
X6431015Y-20531722D01*
X6431015Y-20531722D02*
X6421491Y-20512674D01*
X6421491Y-20512674D02*
X6402443Y-20503150D01*
X6402443Y-20503150D02*
X6364348Y-20503150D01*
X6364348Y-20503150D02*
X6345301Y-20512674D01*
X6431015Y-20626960D02*
X6411967Y-20636484D01*
X6411967Y-20636484D02*
X6364348Y-20636484D01*
X6364348Y-20636484D02*
X6345301Y-20626960D01*
X6345301Y-20626960D02*
X6335777Y-20607912D01*
X6335777Y-20607912D02*
X6335777Y-20588865D01*
X6335777Y-20588865D02*
X6345301Y-20569817D01*
X6345301Y-20569817D02*
X6364348Y-20560293D01*
X6364348Y-20560293D02*
X6411967Y-20560293D01*
X6411967Y-20560293D02*
X6431015Y-20550770D01*
X6526253Y-20503150D02*
X6526253Y-20703150D01*
X6526253Y-20512674D02*
X6545301Y-20503150D01*
X6545301Y-20503150D02*
X6583396Y-20503150D01*
X6583396Y-20503150D02*
X6602443Y-20512674D01*
X6602443Y-20512674D02*
X6611967Y-20522198D01*
X6611967Y-20522198D02*
X6621491Y-20541246D01*
X6621491Y-20541246D02*
X6621491Y-20598389D01*
X6621491Y-20598389D02*
X6611967Y-20617436D01*
X6611967Y-20617436D02*
X6602443Y-20626960D01*
X6602443Y-20626960D02*
X6583396Y-20636484D01*
X6583396Y-20636484D02*
X6545301Y-20636484D01*
X6545301Y-20636484D02*
X6526253Y-20626960D01*
X6707205Y-20617436D02*
X6716729Y-20626960D01*
X6716729Y-20626960D02*
X6707205Y-20636484D01*
X6707205Y-20636484D02*
X6697682Y-20626960D01*
X6697682Y-20626960D02*
X6707205Y-20617436D01*
X6707205Y-20617436D02*
X6707205Y-20636484D01*
X6707205Y-20512674D02*
X6716729Y-20522198D01*
X6716729Y-20522198D02*
X6707205Y-20531722D01*
X6707205Y-20531722D02*
X6697682Y-20522198D01*
X6697682Y-20522198D02*
X6707205Y-20512674D01*
X6707205Y-20512674D02*
X6707205Y-20531722D01*
D10*
X5015000Y-20935000D02*
X5075000Y-20995000D01*
X5075000Y-20935000D02*
X5015000Y-20995000D01*
D11*
X5373872Y-20856484D02*
X5392920Y-20856484D01*
X5392920Y-20856484D02*
X5411967Y-20866008D01*
X5411967Y-20866008D02*
X5421491Y-20875531D01*
X5421491Y-20875531D02*
X5431015Y-20894579D01*
X5431015Y-20894579D02*
X5440539Y-20932674D01*
X5440539Y-20932674D02*
X5440539Y-20980293D01*
X5440539Y-20980293D02*
X5431015Y-21018389D01*
X5431015Y-21018389D02*
X5421491Y-21037436D01*
X5421491Y-21037436D02*
X5411967Y-21046960D01*
X5411967Y-21046960D02*
X5392920Y-21056484D01*
X5392920Y-21056484D02*
X5373872Y-21056484D01*
X5373872Y-21056484D02*
X5354824Y-21046960D01*
X5354824Y-21046960D02*
X5345301Y-21037436D01*
X5345301Y-21037436D02*
X5335777Y-21018389D01*
X5335777Y-21018389D02*
X5326253Y-20980293D01*
X5326253Y-20980293D02*
X5326253Y-20932674D01*
X5326253Y-20932674D02*
X5335777Y-20894579D01*
X5335777Y-20894579D02*
X5345301Y-20875531D01*
X5345301Y-20875531D02*
X5354824Y-20866008D01*
X5354824Y-20866008D02*
X5373872Y-20856484D01*
X5526253Y-21037436D02*
X5535777Y-21046960D01*
X5535777Y-21046960D02*
X5526253Y-21056484D01*
X5526253Y-21056484D02*
X5516729Y-21046960D01*
X5516729Y-21046960D02*
X5526253Y-21037436D01*
X5526253Y-21037436D02*
X5526253Y-21056484D01*
X5707205Y-20856484D02*
X5669110Y-20856484D01*
X5669110Y-20856484D02*
X5650062Y-20866008D01*
X5650062Y-20866008D02*
X5640539Y-20875531D01*
X5640539Y-20875531D02*
X5621491Y-20904103D01*
X5621491Y-20904103D02*
X5611967Y-20942198D01*
X5611967Y-20942198D02*
X5611967Y-21018389D01*
X5611967Y-21018389D02*
X5621491Y-21037436D01*
X5621491Y-21037436D02*
X5631015Y-21046960D01*
X5631015Y-21046960D02*
X5650062Y-21056484D01*
X5650062Y-21056484D02*
X5688158Y-21056484D01*
X5688158Y-21056484D02*
X5707205Y-21046960D01*
X5707205Y-21046960D02*
X5716729Y-21037436D01*
X5716729Y-21037436D02*
X5726253Y-21018389D01*
X5726253Y-21018389D02*
X5726253Y-20970770D01*
X5726253Y-20970770D02*
X5716729Y-20951722D01*
X5716729Y-20951722D02*
X5707205Y-20942198D01*
X5707205Y-20942198D02*
X5688158Y-20932674D01*
X5688158Y-20932674D02*
X5650062Y-20932674D01*
X5650062Y-20932674D02*
X5631015Y-20942198D01*
X5631015Y-20942198D02*
X5621491Y-20951722D01*
X5621491Y-20951722D02*
X5611967Y-20970770D01*
X5850062Y-20856484D02*
X5869110Y-20856484D01*
X5869110Y-20856484D02*
X5888158Y-20866008D01*
X5888158Y-20866008D02*
X5897682Y-20875531D01*
X5897682Y-20875531D02*
X5907205Y-20894579D01*
X5907205Y-20894579D02*
X5916729Y-20932674D01*
X5916729Y-20932674D02*
X5916729Y-20980293D01*
X5916729Y-20980293D02*
X5907205Y-21018389D01*
X5907205Y-21018389D02*
X5897682Y-21037436D01*
X5897682Y-21037436D02*
X5888158Y-21046960D01*
X5888158Y-21046960D02*
X5869110Y-21056484D01*
X5869110Y-21056484D02*
X5850062Y-21056484D01*
X5850062Y-21056484D02*
X5831015Y-21046960D01*
X5831015Y-21046960D02*
X5821491Y-21037436D01*
X5821491Y-21037436D02*
X5811967Y-21018389D01*
X5811967Y-21018389D02*
X5802443Y-20980293D01*
X5802443Y-20980293D02*
X5802443Y-20932674D01*
X5802443Y-20932674D02*
X5811967Y-20894579D01*
X5811967Y-20894579D02*
X5821491Y-20875531D01*
X5821491Y-20875531D02*
X5831015Y-20866008D01*
X5831015Y-20866008D02*
X5850062Y-20856484D01*
X6040539Y-20856484D02*
X6059586Y-20856484D01*
X6059586Y-20856484D02*
X6078634Y-20866008D01*
X6078634Y-20866008D02*
X6088158Y-20875531D01*
X6088158Y-20875531D02*
X6097682Y-20894579D01*
X6097682Y-20894579D02*
X6107205Y-20932674D01*
X6107205Y-20932674D02*
X6107205Y-20980293D01*
X6107205Y-20980293D02*
X6097682Y-21018389D01*
X6097682Y-21018389D02*
X6088158Y-21037436D01*
X6088158Y-21037436D02*
X6078634Y-21046960D01*
X6078634Y-21046960D02*
X6059586Y-21056484D01*
X6059586Y-21056484D02*
X6040539Y-21056484D01*
X6040539Y-21056484D02*
X6021491Y-21046960D01*
X6021491Y-21046960D02*
X6011967Y-21037436D01*
X6011967Y-21037436D02*
X6002443Y-21018389D01*
X6002443Y-21018389D02*
X5992920Y-20980293D01*
X5992920Y-20980293D02*
X5992920Y-20932674D01*
X5992920Y-20932674D02*
X6002443Y-20894579D01*
X6002443Y-20894579D02*
X6011967Y-20875531D01*
X6011967Y-20875531D02*
X6021491Y-20866008D01*
X6021491Y-20866008D02*
X6040539Y-20856484D01*
X6192920Y-21056484D02*
X6192920Y-20923150D01*
X6192920Y-20942198D02*
X6202443Y-20932674D01*
X6202443Y-20932674D02*
X6221491Y-20923150D01*
X6221491Y-20923150D02*
X6250063Y-20923150D01*
X6250063Y-20923150D02*
X6269110Y-20932674D01*
X6269110Y-20932674D02*
X6278634Y-20951722D01*
X6278634Y-20951722D02*
X6278634Y-21056484D01*
X6278634Y-20951722D02*
X6288158Y-20932674D01*
X6288158Y-20932674D02*
X6307205Y-20923150D01*
X6307205Y-20923150D02*
X6335777Y-20923150D01*
X6335777Y-20923150D02*
X6354824Y-20932674D01*
X6354824Y-20932674D02*
X6364348Y-20951722D01*
X6364348Y-20951722D02*
X6364348Y-21056484D01*
X6459586Y-21056484D02*
X6459586Y-20923150D01*
X6459586Y-20942198D02*
X6469110Y-20932674D01*
X6469110Y-20932674D02*
X6488158Y-20923150D01*
X6488158Y-20923150D02*
X6516729Y-20923150D01*
X6516729Y-20923150D02*
X6535777Y-20932674D01*
X6535777Y-20932674D02*
X6545301Y-20951722D01*
X6545301Y-20951722D02*
X6545301Y-21056484D01*
X6545301Y-20951722D02*
X6554824Y-20932674D01*
X6554824Y-20932674D02*
X6573872Y-20923150D01*
X6573872Y-20923150D02*
X6602443Y-20923150D01*
X6602443Y-20923150D02*
X6621491Y-20932674D01*
X6621491Y-20932674D02*
X6631015Y-20951722D01*
X6631015Y-20951722D02*
X6631015Y-21056484D01*
X7021491Y-20846960D02*
X6850063Y-21104103D01*
X7278634Y-20856484D02*
X7297682Y-20856484D01*
X7297682Y-20856484D02*
X7316729Y-20866008D01*
X7316729Y-20866008D02*
X7326253Y-20875531D01*
X7326253Y-20875531D02*
X7335777Y-20894579D01*
X7335777Y-20894579D02*
X7345301Y-20932674D01*
X7345301Y-20932674D02*
X7345301Y-20980293D01*
X7345301Y-20980293D02*
X7335777Y-21018389D01*
X7335777Y-21018389D02*
X7326253Y-21037436D01*
X7326253Y-21037436D02*
X7316729Y-21046960D01*
X7316729Y-21046960D02*
X7297682Y-21056484D01*
X7297682Y-21056484D02*
X7278634Y-21056484D01*
X7278634Y-21056484D02*
X7259586Y-21046960D01*
X7259586Y-21046960D02*
X7250063Y-21037436D01*
X7250063Y-21037436D02*
X7240539Y-21018389D01*
X7240539Y-21018389D02*
X7231015Y-20980293D01*
X7231015Y-20980293D02*
X7231015Y-20932674D01*
X7231015Y-20932674D02*
X7240539Y-20894579D01*
X7240539Y-20894579D02*
X7250063Y-20875531D01*
X7250063Y-20875531D02*
X7259586Y-20866008D01*
X7259586Y-20866008D02*
X7278634Y-20856484D01*
X7431015Y-21037436D02*
X7440539Y-21046960D01*
X7440539Y-21046960D02*
X7431015Y-21056484D01*
X7431015Y-21056484D02*
X7421491Y-21046960D01*
X7421491Y-21046960D02*
X7431015Y-21037436D01*
X7431015Y-21037436D02*
X7431015Y-21056484D01*
X7564348Y-20856484D02*
X7583396Y-20856484D01*
X7583396Y-20856484D02*
X7602444Y-20866008D01*
X7602444Y-20866008D02*
X7611967Y-20875531D01*
X7611967Y-20875531D02*
X7621491Y-20894579D01*
X7621491Y-20894579D02*
X7631015Y-20932674D01*
X7631015Y-20932674D02*
X7631015Y-20980293D01*
X7631015Y-20980293D02*
X7621491Y-21018389D01*
X7621491Y-21018389D02*
X7611967Y-21037436D01*
X7611967Y-21037436D02*
X7602444Y-21046960D01*
X7602444Y-21046960D02*
X7583396Y-21056484D01*
X7583396Y-21056484D02*
X7564348Y-21056484D01*
X7564348Y-21056484D02*
X7545301Y-21046960D01*
X7545301Y-21046960D02*
X7535777Y-21037436D01*
X7535777Y-21037436D02*
X7526253Y-21018389D01*
X7526253Y-21018389D02*
X7516729Y-20980293D01*
X7516729Y-20980293D02*
X7516729Y-20932674D01*
X7516729Y-20932674D02*
X7526253Y-20894579D01*
X7526253Y-20894579D02*
X7535777Y-20875531D01*
X7535777Y-20875531D02*
X7545301Y-20866008D01*
X7545301Y-20866008D02*
X7564348Y-20856484D01*
X7707206Y-20875531D02*
X7716729Y-20866008D01*
X7716729Y-20866008D02*
X7735777Y-20856484D01*
X7735777Y-20856484D02*
X7783396Y-20856484D01*
X7783396Y-20856484D02*
X7802444Y-20866008D01*
X7802444Y-20866008D02*
X7811967Y-20875531D01*
X7811967Y-20875531D02*
X7821491Y-20894579D01*
X7821491Y-20894579D02*
X7821491Y-20913627D01*
X7821491Y-20913627D02*
X7811967Y-20942198D01*
X7811967Y-20942198D02*
X7697682Y-21056484D01*
X7697682Y-21056484D02*
X7821491Y-21056484D01*
X7888158Y-20856484D02*
X8011967Y-20856484D01*
X8011967Y-20856484D02*
X7945301Y-20932674D01*
X7945301Y-20932674D02*
X7973872Y-20932674D01*
X7973872Y-20932674D02*
X7992920Y-20942198D01*
X7992920Y-20942198D02*
X8002444Y-20951722D01*
X8002444Y-20951722D02*
X8011967Y-20970770D01*
X8011967Y-20970770D02*
X8011967Y-21018389D01*
X8011967Y-21018389D02*
X8002444Y-21037436D01*
X8002444Y-21037436D02*
X7992920Y-21046960D01*
X7992920Y-21046960D02*
X7973872Y-21056484D01*
X7973872Y-21056484D02*
X7916729Y-21056484D01*
X7916729Y-21056484D02*
X7897682Y-21046960D01*
X7897682Y-21046960D02*
X7888158Y-21037436D01*
X8183396Y-20856484D02*
X8145301Y-20856484D01*
X8145301Y-20856484D02*
X8126253Y-20866008D01*
X8126253Y-20866008D02*
X8116729Y-20875531D01*
X8116729Y-20875531D02*
X8097682Y-20904103D01*
X8097682Y-20904103D02*
X8088158Y-20942198D01*
X8088158Y-20942198D02*
X8088158Y-21018389D01*
X8088158Y-21018389D02*
X8097682Y-21037436D01*
X8097682Y-21037436D02*
X8107206Y-21046960D01*
X8107206Y-21046960D02*
X8126253Y-21056484D01*
X8126253Y-21056484D02*
X8164348Y-21056484D01*
X8164348Y-21056484D02*
X8183396Y-21046960D01*
X8183396Y-21046960D02*
X8192920Y-21037436D01*
X8192920Y-21037436D02*
X8202444Y-21018389D01*
X8202444Y-21018389D02*
X8202444Y-20970770D01*
X8202444Y-20970770D02*
X8192920Y-20951722D01*
X8192920Y-20951722D02*
X8183396Y-20942198D01*
X8183396Y-20942198D02*
X8164348Y-20932674D01*
X8164348Y-20932674D02*
X8126253Y-20932674D01*
X8126253Y-20932674D02*
X8107206Y-20942198D01*
X8107206Y-20942198D02*
X8097682Y-20951722D01*
X8097682Y-20951722D02*
X8088158Y-20970770D01*
X8278634Y-20856484D02*
X8278634Y-20894579D01*
X8354825Y-20856484D02*
X8354825Y-20894579D01*
X8650063Y-21132674D02*
X8640539Y-21123150D01*
X8640539Y-21123150D02*
X8621491Y-21094579D01*
X8621491Y-21094579D02*
X8611968Y-21075531D01*
X8611968Y-21075531D02*
X8602444Y-21046960D01*
X8602444Y-21046960D02*
X8592920Y-20999341D01*
X8592920Y-20999341D02*
X8592920Y-20961246D01*
X8592920Y-20961246D02*
X8602444Y-20913627D01*
X8602444Y-20913627D02*
X8611968Y-20885055D01*
X8611968Y-20885055D02*
X8621491Y-20866008D01*
X8621491Y-20866008D02*
X8640539Y-20837436D01*
X8640539Y-20837436D02*
X8650063Y-20827912D01*
X8811968Y-20923150D02*
X8811968Y-21056484D01*
X8764349Y-20846960D02*
X8716730Y-20989817D01*
X8716730Y-20989817D02*
X8840539Y-20989817D01*
X9069111Y-21056484D02*
X9069111Y-20856484D01*
X9154825Y-21056484D02*
X9154825Y-20951722D01*
X9154825Y-20951722D02*
X9145301Y-20932674D01*
X9145301Y-20932674D02*
X9126253Y-20923150D01*
X9126253Y-20923150D02*
X9097682Y-20923150D01*
X9097682Y-20923150D02*
X9078634Y-20932674D01*
X9078634Y-20932674D02*
X9069111Y-20942198D01*
X9278634Y-21056484D02*
X9259587Y-21046960D01*
X9259587Y-21046960D02*
X9250063Y-21037436D01*
X9250063Y-21037436D02*
X9240539Y-21018389D01*
X9240539Y-21018389D02*
X9240539Y-20961246D01*
X9240539Y-20961246D02*
X9250063Y-20942198D01*
X9250063Y-20942198D02*
X9259587Y-20932674D01*
X9259587Y-20932674D02*
X9278634Y-20923150D01*
X9278634Y-20923150D02*
X9307206Y-20923150D01*
X9307206Y-20923150D02*
X9326253Y-20932674D01*
X9326253Y-20932674D02*
X9335777Y-20942198D01*
X9335777Y-20942198D02*
X9345301Y-20961246D01*
X9345301Y-20961246D02*
X9345301Y-21018389D01*
X9345301Y-21018389D02*
X9335777Y-21037436D01*
X9335777Y-21037436D02*
X9326253Y-21046960D01*
X9326253Y-21046960D02*
X9307206Y-21056484D01*
X9307206Y-21056484D02*
X9278634Y-21056484D01*
X9459587Y-21056484D02*
X9440539Y-21046960D01*
X9440539Y-21046960D02*
X9431015Y-21027912D01*
X9431015Y-21027912D02*
X9431015Y-20856484D01*
X9611968Y-21046960D02*
X9592920Y-21056484D01*
X9592920Y-21056484D02*
X9554825Y-21056484D01*
X9554825Y-21056484D02*
X9535777Y-21046960D01*
X9535777Y-21046960D02*
X9526253Y-21027912D01*
X9526253Y-21027912D02*
X9526253Y-20951722D01*
X9526253Y-20951722D02*
X9535777Y-20932674D01*
X9535777Y-20932674D02*
X9554825Y-20923150D01*
X9554825Y-20923150D02*
X9592920Y-20923150D01*
X9592920Y-20923150D02*
X9611968Y-20932674D01*
X9611968Y-20932674D02*
X9621492Y-20951722D01*
X9621492Y-20951722D02*
X9621492Y-20970770D01*
X9621492Y-20970770D02*
X9526253Y-20989817D01*
X9697682Y-21046960D02*
X9716730Y-21056484D01*
X9716730Y-21056484D02*
X9754825Y-21056484D01*
X9754825Y-21056484D02*
X9773873Y-21046960D01*
X9773873Y-21046960D02*
X9783396Y-21027912D01*
X9783396Y-21027912D02*
X9783396Y-21018389D01*
X9783396Y-21018389D02*
X9773873Y-20999341D01*
X9773873Y-20999341D02*
X9754825Y-20989817D01*
X9754825Y-20989817D02*
X9726253Y-20989817D01*
X9726253Y-20989817D02*
X9707206Y-20980293D01*
X9707206Y-20980293D02*
X9697682Y-20961246D01*
X9697682Y-20961246D02*
X9697682Y-20951722D01*
X9697682Y-20951722D02*
X9707206Y-20932674D01*
X9707206Y-20932674D02*
X9726253Y-20923150D01*
X9726253Y-20923150D02*
X9754825Y-20923150D01*
X9754825Y-20923150D02*
X9773873Y-20932674D01*
X9850063Y-21132674D02*
X9859587Y-21123150D01*
X9859587Y-21123150D02*
X9878634Y-21094579D01*
X9878634Y-21094579D02*
X9888158Y-21075531D01*
X9888158Y-21075531D02*
X9897682Y-21046960D01*
X9897682Y-21046960D02*
X9907206Y-20999341D01*
X9907206Y-20999341D02*
X9907206Y-20961246D01*
X9907206Y-20961246D02*
X9897682Y-20913627D01*
X9897682Y-20913627D02*
X9888158Y-20885055D01*
X9888158Y-20885055D02*
X9878634Y-20866008D01*
X9878634Y-20866008D02*
X9859587Y-20837436D01*
X9859587Y-20837436D02*
X9850063Y-20827912D01*
X10211968Y-21132674D02*
X10202444Y-21123150D01*
X10202444Y-21123150D02*
X10183396Y-21094579D01*
X10183396Y-21094579D02*
X10173873Y-21075531D01*
X10173873Y-21075531D02*
X10164349Y-21046960D01*
X10164349Y-21046960D02*
X10154825Y-20999341D01*
X10154825Y-20999341D02*
X10154825Y-20961246D01*
X10154825Y-20961246D02*
X10164349Y-20913627D01*
X10164349Y-20913627D02*
X10173873Y-20885055D01*
X10173873Y-20885055D02*
X10183396Y-20866008D01*
X10183396Y-20866008D02*
X10202444Y-20837436D01*
X10202444Y-20837436D02*
X10211968Y-20827912D01*
X10288158Y-20923150D02*
X10288158Y-21056484D01*
X10288158Y-20942198D02*
X10297682Y-20932674D01*
X10297682Y-20932674D02*
X10316730Y-20923150D01*
X10316730Y-20923150D02*
X10345301Y-20923150D01*
X10345301Y-20923150D02*
X10364349Y-20932674D01*
X10364349Y-20932674D02*
X10373873Y-20951722D01*
X10373873Y-20951722D02*
X10373873Y-21056484D01*
X10497682Y-21056484D02*
X10478634Y-21046960D01*
X10478634Y-21046960D02*
X10469111Y-21037436D01*
X10469111Y-21037436D02*
X10459587Y-21018389D01*
X10459587Y-21018389D02*
X10459587Y-20961246D01*
X10459587Y-20961246D02*
X10469111Y-20942198D01*
X10469111Y-20942198D02*
X10478634Y-20932674D01*
X10478634Y-20932674D02*
X10497682Y-20923150D01*
X10497682Y-20923150D02*
X10526254Y-20923150D01*
X10526254Y-20923150D02*
X10545301Y-20932674D01*
X10545301Y-20932674D02*
X10554825Y-20942198D01*
X10554825Y-20942198D02*
X10564349Y-20961246D01*
X10564349Y-20961246D02*
X10564349Y-21018389D01*
X10564349Y-21018389D02*
X10554825Y-21037436D01*
X10554825Y-21037436D02*
X10545301Y-21046960D01*
X10545301Y-21046960D02*
X10526254Y-21056484D01*
X10526254Y-21056484D02*
X10497682Y-21056484D01*
X10621492Y-20923150D02*
X10697682Y-20923150D01*
X10650063Y-20856484D02*
X10650063Y-21027912D01*
X10650063Y-21027912D02*
X10659587Y-21046960D01*
X10659587Y-21046960D02*
X10678634Y-21056484D01*
X10678634Y-21056484D02*
X10697682Y-21056484D01*
X10916730Y-20923150D02*
X10916730Y-21123150D01*
X10916730Y-20932674D02*
X10935777Y-20923150D01*
X10935777Y-20923150D02*
X10973873Y-20923150D01*
X10973873Y-20923150D02*
X10992920Y-20932674D01*
X10992920Y-20932674D02*
X11002444Y-20942198D01*
X11002444Y-20942198D02*
X11011968Y-20961246D01*
X11011968Y-20961246D02*
X11011968Y-21018389D01*
X11011968Y-21018389D02*
X11002444Y-21037436D01*
X11002444Y-21037436D02*
X10992920Y-21046960D01*
X10992920Y-21046960D02*
X10973873Y-21056484D01*
X10973873Y-21056484D02*
X10935777Y-21056484D01*
X10935777Y-21056484D02*
X10916730Y-21046960D01*
X11126254Y-21056484D02*
X11107206Y-21046960D01*
X11107206Y-21046960D02*
X11097682Y-21027912D01*
X11097682Y-21027912D02*
X11097682Y-20856484D01*
X11288158Y-21056484D02*
X11288158Y-20951722D01*
X11288158Y-20951722D02*
X11278634Y-20932674D01*
X11278634Y-20932674D02*
X11259587Y-20923150D01*
X11259587Y-20923150D02*
X11221492Y-20923150D01*
X11221492Y-20923150D02*
X11202444Y-20932674D01*
X11288158Y-21046960D02*
X11269111Y-21056484D01*
X11269111Y-21056484D02*
X11221492Y-21056484D01*
X11221492Y-21056484D02*
X11202444Y-21046960D01*
X11202444Y-21046960D02*
X11192920Y-21027912D01*
X11192920Y-21027912D02*
X11192920Y-21008865D01*
X11192920Y-21008865D02*
X11202444Y-20989817D01*
X11202444Y-20989817D02*
X11221492Y-20980293D01*
X11221492Y-20980293D02*
X11269111Y-20980293D01*
X11269111Y-20980293D02*
X11288158Y-20970770D01*
X11354825Y-20923150D02*
X11431015Y-20923150D01*
X11383396Y-20856484D02*
X11383396Y-21027912D01*
X11383396Y-21027912D02*
X11392920Y-21046960D01*
X11392920Y-21046960D02*
X11411968Y-21056484D01*
X11411968Y-21056484D02*
X11431015Y-21056484D01*
X11573873Y-21046960D02*
X11554825Y-21056484D01*
X11554825Y-21056484D02*
X11516730Y-21056484D01*
X11516730Y-21056484D02*
X11497682Y-21046960D01*
X11497682Y-21046960D02*
X11488158Y-21027912D01*
X11488158Y-21027912D02*
X11488158Y-20951722D01*
X11488158Y-20951722D02*
X11497682Y-20932674D01*
X11497682Y-20932674D02*
X11516730Y-20923150D01*
X11516730Y-20923150D02*
X11554825Y-20923150D01*
X11554825Y-20923150D02*
X11573873Y-20932674D01*
X11573873Y-20932674D02*
X11583396Y-20951722D01*
X11583396Y-20951722D02*
X11583396Y-20970770D01*
X11583396Y-20970770D02*
X11488158Y-20989817D01*
X11754825Y-21056484D02*
X11754825Y-20856484D01*
X11754825Y-21046960D02*
X11735777Y-21056484D01*
X11735777Y-21056484D02*
X11697682Y-21056484D01*
X11697682Y-21056484D02*
X11678634Y-21046960D01*
X11678634Y-21046960D02*
X11669111Y-21037436D01*
X11669111Y-21037436D02*
X11659587Y-21018389D01*
X11659587Y-21018389D02*
X11659587Y-20961246D01*
X11659587Y-20961246D02*
X11669111Y-20942198D01*
X11669111Y-20942198D02*
X11678634Y-20932674D01*
X11678634Y-20932674D02*
X11697682Y-20923150D01*
X11697682Y-20923150D02*
X11735777Y-20923150D01*
X11735777Y-20923150D02*
X11754825Y-20932674D01*
X11831015Y-21132674D02*
X11840539Y-21123150D01*
X11840539Y-21123150D02*
X11859587Y-21094579D01*
X11859587Y-21094579D02*
X11869111Y-21075531D01*
X11869111Y-21075531D02*
X11878634Y-21046960D01*
X11878634Y-21046960D02*
X11888158Y-20999341D01*
X11888158Y-20999341D02*
X11888158Y-20961246D01*
X11888158Y-20961246D02*
X11878634Y-20913627D01*
X11878634Y-20913627D02*
X11869111Y-20885055D01*
X11869111Y-20885055D02*
X11859587Y-20866008D01*
X11859587Y-20866008D02*
X11840539Y-20837436D01*
X11840539Y-20837436D02*
X11831015Y-20827912D01*
M02*
