%TF.GenerationSoftware,KiCad,Pcbnew,7.0.9*%
%TF.CreationDate,2024-03-25T13:36:49-04:00*%
%TF.ProjectId,CSTAR,43535441-522e-46b6-9963-61645f706362,rev?*%
%TF.SameCoordinates,Original*%
%TF.FileFunction,Paste,Top*%
%TF.FilePolarity,Positive*%
%FSLAX46Y46*%
G04 Gerber Fmt 4.6, Leading zero omitted, Abs format (unit mm)*
G04 Created by KiCad (PCBNEW 7.0.9) date 2024-03-25 13:36:49*
%MOMM*%
%LPD*%
G01*
G04 APERTURE LIST*
G04 Aperture macros list*
%AMRoundRect*
0 Rectangle with rounded corners*
0 $1 Rounding radius*
0 $2 $3 $4 $5 $6 $7 $8 $9 X,Y pos of 4 corners*
0 Add a 4 corners polygon primitive as box body*
4,1,4,$2,$3,$4,$5,$6,$7,$8,$9,$2,$3,0*
0 Add four circle primitives for the rounded corners*
1,1,$1+$1,$2,$3*
1,1,$1+$1,$4,$5*
1,1,$1+$1,$6,$7*
1,1,$1+$1,$8,$9*
0 Add four rect primitives between the rounded corners*
20,1,$1+$1,$2,$3,$4,$5,0*
20,1,$1+$1,$4,$5,$6,$7,0*
20,1,$1+$1,$6,$7,$8,$9,0*
20,1,$1+$1,$8,$9,$2,$3,0*%
%AMRotRect*
0 Rectangle, with rotation*
0 The origin of the aperture is its center*
0 $1 length*
0 $2 width*
0 $3 Rotation angle, in degrees counterclockwise*
0 Add horizontal line*
21,1,$1,$2,0,0,$3*%
%AMFreePoly0*
4,1,9,0.533400,-0.170180,0.127000,-0.170180,0.127000,-0.127000,-0.533400,-0.127000,-0.533400,0.127000,0.127000,0.127000,0.127000,1.480820,0.533400,1.480820,0.533400,-0.170180,0.533400,-0.170180,$1*%
%AMFreePoly1*
4,1,9,0.177800,0.127000,0.533400,0.127000,0.533400,-0.127000,0.177800,-0.127000,0.177800,-2.153920,-1.320800,-2.153920,-1.320800,0.157480,0.177800,0.157480,0.177800,0.127000,0.177800,0.127000,$1*%
G04 Aperture macros list end*
%ADD10RoundRect,0.250000X-0.650000X0.325000X-0.650000X-0.325000X0.650000X-0.325000X0.650000X0.325000X0*%
%ADD11RoundRect,0.250000X-0.262500X-0.450000X0.262500X-0.450000X0.262500X0.450000X-0.262500X0.450000X0*%
%ADD12RoundRect,0.250000X0.250000X0.475000X-0.250000X0.475000X-0.250000X-0.475000X0.250000X-0.475000X0*%
%ADD13RoundRect,0.250000X-0.475000X0.250000X-0.475000X-0.250000X0.475000X-0.250000X0.475000X0.250000X0*%
%ADD14RoundRect,0.150000X-0.587500X-0.150000X0.587500X-0.150000X0.587500X0.150000X-0.587500X0.150000X0*%
%ADD15RoundRect,0.250000X0.650000X-0.325000X0.650000X0.325000X-0.650000X0.325000X-0.650000X-0.325000X0*%
%ADD16RoundRect,0.150000X-0.150000X0.587500X-0.150000X-0.587500X0.150000X-0.587500X0.150000X0.587500X0*%
%ADD17R,3.429000X2.489200*%
%ADD18RoundRect,0.250000X-0.450000X0.262500X-0.450000X-0.262500X0.450000X-0.262500X0.450000X0.262500X0*%
%ADD19RoundRect,0.250000X-0.250000X-0.475000X0.250000X-0.475000X0.250000X0.475000X-0.250000X0.475000X0*%
%ADD20R,0.812800X1.447800*%
%ADD21R,0.609600X0.304800*%
%ADD22R,0.304800X1.727200*%
%ADD23R,0.990600X0.406400*%
%ADD24RoundRect,0.150000X0.150000X-0.587500X0.150000X0.587500X-0.150000X0.587500X-0.150000X-0.587500X0*%
%ADD25RoundRect,0.250000X0.262500X0.450000X-0.262500X0.450000X-0.262500X-0.450000X0.262500X-0.450000X0*%
%ADD26RoundRect,0.250000X0.450000X-0.262500X0.450000X0.262500X-0.450000X0.262500X-0.450000X-0.262500X0*%
%ADD27R,1.140000X0.600000*%
%ADD28R,1.140000X0.300000*%
%ADD29R,1.400000X0.449999*%
%ADD30R,3.099999X5.180000*%
%ADD31RoundRect,0.250000X0.475000X-0.250000X0.475000X0.250000X-0.475000X0.250000X-0.475000X-0.250000X0*%
%ADD32R,0.254000X0.965200*%
%ADD33R,0.965200X0.254000*%
%ADD34R,3.352800X3.352800*%
%ADD35R,0.800000X1.600000*%
%ADD36R,2.100000X3.000000*%
%ADD37R,1.981200X0.558800*%
%ADD38R,0.558800X1.981200*%
%ADD39R,1.117600X0.406400*%
%ADD40RoundRect,0.243750X-0.243750X-0.456250X0.243750X-0.456250X0.243750X0.456250X-0.243750X0.456250X0*%
%ADD41RotRect,1.500000X0.900000X45.000000*%
%ADD42RotRect,0.900000X1.500000X45.000000*%
%ADD43RotRect,0.900000X0.900000X45.000000*%
%ADD44R,1.200000X2.200000*%
%ADD45R,3.500000X2.200000*%
%ADD46R,0.900000X1.500000*%
%ADD47R,1.500000X0.900000*%
%ADD48R,0.900000X0.900000*%
%ADD49R,1.066800X0.254000*%
%ADD50FreePoly0,0.000000*%
%ADD51FreePoly1,0.000000*%
%ADD52RoundRect,0.243750X0.456250X-0.243750X0.456250X0.243750X-0.456250X0.243750X-0.456250X-0.243750X0*%
%ADD53R,1.981200X2.794000*%
%ADD54R,2.184400X3.200400*%
%ADD55R,1.600000X0.800000*%
%ADD56R,3.000000X2.100000*%
%ADD57R,0.406400X0.990600*%
%ADD58R,1.955432X0.420766*%
%ADD59R,0.812800X0.228600*%
%ADD60R,0.228600X0.812800*%
%ADD61R,1.193800X1.727200*%
%ADD62R,0.381000X0.381000*%
G04 APERTURE END LIST*
%TO.C,U8*%
G36*
X187012300Y-123244000D02*
G01*
X185535900Y-123244000D01*
X185535900Y-121767600D01*
X187012300Y-121767600D01*
X187012300Y-123244000D01*
G37*
G36*
X185335900Y-123244000D02*
G01*
X183859500Y-123244000D01*
X183859500Y-121767600D01*
X185335900Y-121767600D01*
X185335900Y-123244000D01*
G37*
G36*
X187012300Y-124920400D02*
G01*
X185535900Y-124920400D01*
X185535900Y-123444000D01*
X187012300Y-123444000D01*
X187012300Y-124920400D01*
G37*
G36*
X185335900Y-124920400D02*
G01*
X183859500Y-124920400D01*
X183859500Y-123444000D01*
X185335900Y-123444000D01*
X185335900Y-124920400D01*
G37*
%TO.C,Q8*%
G36*
X87274400Y-193065400D02*
G01*
X86868000Y-193065400D01*
X86868000Y-191429640D01*
X87274400Y-191429640D01*
X87274400Y-193065400D01*
G37*
%TO.C,U5*%
G36*
X76315900Y-136059999D02*
G01*
X74839500Y-136059999D01*
X74839500Y-134583599D01*
X76315900Y-134583599D01*
X76315900Y-136059999D01*
G37*
G36*
X76315900Y-137736399D02*
G01*
X74839500Y-137736399D01*
X74839500Y-136259999D01*
X76315900Y-136259999D01*
X76315900Y-137736399D01*
G37*
G36*
X77992300Y-136059999D02*
G01*
X76515900Y-136059999D01*
X76515900Y-134583599D01*
X77992300Y-134583599D01*
X77992300Y-136059999D01*
G37*
G36*
X77992300Y-137736399D02*
G01*
X76515900Y-137736399D01*
X76515900Y-136259999D01*
X77992300Y-136259999D01*
X77992300Y-137736399D01*
G37*
%TD*%
D10*
%TO.C,C25*%
X94996000Y-87075000D03*
X94996000Y-90025000D03*
%TD*%
%TO.C,C24*%
X132950000Y-87400000D03*
X132950000Y-90350000D03*
%TD*%
D11*
%TO.C,R23*%
X69562500Y-138875000D03*
X71387500Y-138875000D03*
%TD*%
D12*
%TO.C,C2*%
X74991000Y-180213000D03*
X73091000Y-180213000D03*
%TD*%
D13*
%TO.C,C38*%
X82296000Y-191074000D03*
X82296000Y-192974000D03*
%TD*%
%TO.C,C20*%
X136347200Y-87289200D03*
X136347200Y-89189200D03*
%TD*%
%TO.C,C22*%
X139293600Y-87279400D03*
X139293600Y-89179400D03*
%TD*%
%TO.C,C4*%
X86741000Y-182819000D03*
X86741000Y-184719000D03*
%TD*%
D14*
%TO.C,Q4*%
X188014000Y-114938000D03*
X188014000Y-116838000D03*
X189889000Y-115888000D03*
%TD*%
D15*
%TO.C,C8*%
X64389000Y-172544000D03*
X64389000Y-169594000D03*
%TD*%
D16*
%TO.C,Q2*%
X74277500Y-122942500D03*
X72377500Y-122942500D03*
X73327500Y-124817500D03*
%TD*%
D17*
%TO.C,L1*%
X66421000Y-181406800D03*
X66421000Y-175971200D03*
%TD*%
D18*
%TO.C,R41*%
X191824000Y-126852500D03*
X191824000Y-128677500D03*
%TD*%
D19*
%TO.C,C31*%
X52136000Y-113284000D03*
X54036000Y-113284000D03*
%TD*%
D18*
%TO.C,R3*%
X80645000Y-169648500D03*
X80645000Y-171473500D03*
%TD*%
D20*
%TO.C,PS1*%
X107492988Y-165757784D03*
D21*
X107392978Y-166808988D03*
X107392978Y-167259000D03*
X107392988Y-167709012D03*
X109092990Y-167709012D03*
X109093000Y-167259000D03*
X109093000Y-166808988D03*
D20*
X108992990Y-165757784D03*
D22*
X108242989Y-165618084D03*
%TD*%
D23*
%TO.C,LED4*%
X59817000Y-178523900D03*
X59817000Y-176822100D03*
%TD*%
D24*
%TO.C,Q5*%
X58232000Y-80264000D03*
X60132000Y-80264000D03*
X59182000Y-78389000D03*
%TD*%
D25*
%TO.C,R11*%
X106957500Y-179857400D03*
X105132500Y-179857400D03*
%TD*%
D26*
%TO.C,R13*%
X119126000Y-91741000D03*
X119126000Y-89916000D03*
%TD*%
D24*
%TO.C,Q7*%
X62738000Y-80264000D03*
X64638000Y-80264000D03*
X63688000Y-78389000D03*
%TD*%
D27*
%TO.C,J27*%
X195680000Y-106800000D03*
X195680000Y-106000000D03*
D28*
X195680000Y-104850000D03*
X195680000Y-103850000D03*
X195680000Y-103350000D03*
X195680000Y-102350000D03*
D27*
X195680000Y-100400000D03*
X195680000Y-101200000D03*
D28*
X195680000Y-101850000D03*
X195680000Y-102850000D03*
X195680000Y-104350000D03*
X195680000Y-105350000D03*
%TD*%
D29*
%TO.C,U2*%
X143353998Y-80695000D03*
X143353998Y-81345001D03*
X143353998Y-81995000D03*
X143353998Y-82645001D03*
X143353998Y-83294999D03*
X143353998Y-83945001D03*
X143353998Y-84594999D03*
X143353998Y-85245001D03*
X143353998Y-85894999D03*
X143353998Y-86545001D03*
X143353998Y-87194999D03*
X143353998Y-87845000D03*
X143353998Y-88494999D03*
X143353998Y-89145000D03*
X149253999Y-89145000D03*
X149253999Y-88494999D03*
X149253999Y-87845000D03*
X149253999Y-87194999D03*
X149253999Y-86545001D03*
X149253999Y-85894999D03*
X149253999Y-85245001D03*
X149253999Y-84594999D03*
X149253999Y-83945001D03*
X149253999Y-83294999D03*
X149253999Y-82645001D03*
X149253999Y-81995000D03*
X149253999Y-81345001D03*
X149253999Y-80695000D03*
D30*
X146303997Y-84920000D03*
%TD*%
D26*
%TO.C,R51*%
X192913000Y-101369500D03*
X192913000Y-99544500D03*
%TD*%
D18*
%TO.C,R9*%
X59817000Y-172696500D03*
X59817000Y-174521500D03*
%TD*%
D31*
%TO.C,C34*%
X188976000Y-154112000D03*
X188976000Y-152212000D03*
%TD*%
D26*
%TO.C,R5*%
X83693000Y-171473500D03*
X83693000Y-169648500D03*
%TD*%
D31*
%TO.C,C29*%
X70104000Y-77404000D03*
X70104000Y-75504000D03*
%TD*%
D13*
%TO.C,C1*%
X123317000Y-174691000D03*
X123317000Y-176591000D03*
%TD*%
D32*
%TO.C,U8*%
X186935900Y-121019900D03*
X186435901Y-121019900D03*
X185935899Y-121019900D03*
X185435900Y-121019900D03*
X184935901Y-121019900D03*
X184435899Y-121019900D03*
X183935900Y-121019900D03*
D33*
X183111800Y-121844000D03*
X183111800Y-122343999D03*
X183111800Y-122844001D03*
X183111800Y-123344000D03*
X183111800Y-123843999D03*
X183111800Y-124344001D03*
X183111800Y-124844000D03*
D32*
X183935900Y-125668100D03*
X184435899Y-125668100D03*
X184935901Y-125668100D03*
X185435900Y-125668100D03*
X185935899Y-125668100D03*
X186435901Y-125668100D03*
X186935900Y-125668100D03*
D33*
X187760000Y-124844000D03*
X187760000Y-124344001D03*
X187760000Y-123843999D03*
X187760000Y-123344000D03*
X187760000Y-122844001D03*
X187760000Y-122343999D03*
X187760000Y-121844000D03*
D34*
X185435900Y-123344000D03*
%TD*%
D26*
%TO.C,R39*%
X196396000Y-117120500D03*
X196396000Y-115295500D03*
%TD*%
%TO.C,R31*%
X70104000Y-81684500D03*
X70104000Y-79859500D03*
%TD*%
D13*
%TO.C,C12*%
X100457000Y-158689000D03*
X100457000Y-160589000D03*
%TD*%
D35*
%TO.C,J26*%
X132070000Y-57510000D03*
X130820000Y-57510000D03*
X129570000Y-57510000D03*
X128320000Y-57510000D03*
X127070000Y-57510000D03*
X125820000Y-57510000D03*
X124570000Y-57510000D03*
D36*
X134620000Y-54610000D03*
X122020000Y-54610000D03*
%TD*%
D11*
%TO.C,R22*%
X69572500Y-141605000D03*
X71397500Y-141605000D03*
%TD*%
D26*
%TO.C,R53*%
X170434000Y-111017700D03*
X170434000Y-109192700D03*
%TD*%
%TO.C,R35*%
X179251000Y-120446000D03*
X179251000Y-118621000D03*
%TD*%
D37*
%TO.C,U4*%
X134797800Y-147574000D03*
X134797800Y-146304000D03*
X134797800Y-145034000D03*
X134797800Y-143764000D03*
X134797800Y-142494000D03*
X134797800Y-141224000D03*
X134797800Y-139954000D03*
X129870200Y-139954000D03*
X129870200Y-141224000D03*
X129870200Y-142494000D03*
X129870200Y-143764000D03*
X129870200Y-145034000D03*
X129870200Y-146304000D03*
X129870200Y-147574000D03*
%TD*%
D19*
%TO.C,C11*%
X105095000Y-176809400D03*
X106995000Y-176809400D03*
%TD*%
D11*
%TO.C,R45*%
X117959500Y-142494000D03*
X119784500Y-142494000D03*
%TD*%
D31*
%TO.C,C17*%
X98552000Y-82804000D03*
X98552000Y-80904000D03*
%TD*%
%TO.C,C27*%
X85471000Y-141920000D03*
X85471000Y-140020000D03*
%TD*%
D18*
%TO.C,R6*%
X118237000Y-174728500D03*
X118237000Y-176553500D03*
%TD*%
D31*
%TO.C,C6*%
X71501000Y-171511000D03*
X71501000Y-169611000D03*
%TD*%
D18*
%TO.C,R7*%
X74549000Y-173712500D03*
X74549000Y-175537500D03*
%TD*%
D11*
%TO.C,R38*%
X187736500Y-119002000D03*
X189561500Y-119002000D03*
%TD*%
D23*
%TO.C,LED3*%
X118237000Y-180301900D03*
X118237000Y-178600100D03*
%TD*%
D13*
%TO.C,C9*%
X102997000Y-165293000D03*
X102997000Y-167193000D03*
%TD*%
D25*
%TO.C,R26*%
X79652500Y-124460000D03*
X77827500Y-124460000D03*
%TD*%
D38*
%TO.C,U7*%
X159004000Y-118795800D03*
X160274000Y-118795800D03*
X161544000Y-118795800D03*
X162814000Y-118795800D03*
X164084000Y-118795800D03*
X165354000Y-118795800D03*
X166624000Y-118795800D03*
X166624000Y-113868200D03*
X165354000Y-113868200D03*
X164084000Y-113868200D03*
X162814000Y-113868200D03*
X161544000Y-113868200D03*
X160274000Y-113868200D03*
X159004000Y-113868200D03*
%TD*%
D31*
%TO.C,C15*%
X115062000Y-91882000D03*
X115062000Y-89982000D03*
%TD*%
D29*
%TO.C,U3*%
X106473201Y-81154199D03*
X106473201Y-81804200D03*
X106473201Y-82454199D03*
X106473201Y-83104200D03*
X106473201Y-83754198D03*
X106473201Y-84404200D03*
X106473201Y-85054198D03*
X106473201Y-85704200D03*
X106473201Y-86354198D03*
X106473201Y-87004200D03*
X106473201Y-87654198D03*
X106473201Y-88304199D03*
X106473201Y-88954198D03*
X106473201Y-89604199D03*
X112373202Y-89604199D03*
X112373202Y-88954198D03*
X112373202Y-88304199D03*
X112373202Y-87654198D03*
X112373202Y-87004200D03*
X112373202Y-86354198D03*
X112373202Y-85704200D03*
X112373202Y-85054198D03*
X112373202Y-84404200D03*
X112373202Y-83754198D03*
X112373202Y-83104200D03*
X112373202Y-82454199D03*
X112373202Y-81804200D03*
X112373202Y-81154199D03*
D30*
X109423200Y-85379199D03*
%TD*%
D39*
%TO.C,CR1*%
X66929000Y-61000000D03*
X69215000Y-61000000D03*
%TD*%
D13*
%TO.C,C37*%
X153416000Y-146624000D03*
X153416000Y-148524000D03*
%TD*%
D40*
%TO.C,F2*%
X129237500Y-162179000D03*
X131112500Y-162179000D03*
%TD*%
D31*
%TO.C,C28*%
X85852000Y-115504000D03*
X85852000Y-113604000D03*
%TD*%
D27*
%TO.C,J31*%
X58357500Y-123900000D03*
X58357500Y-124700000D03*
D28*
X58357500Y-125850000D03*
X58357500Y-126850000D03*
X58357500Y-127350000D03*
X58357500Y-128350000D03*
D27*
X58357500Y-130300000D03*
X58357500Y-129500000D03*
D28*
X58357500Y-128850000D03*
X58357500Y-127850000D03*
X58357500Y-126350000D03*
X58357500Y-125350000D03*
%TD*%
D18*
%TO.C,R43*%
X170434000Y-113360200D03*
X170434000Y-115185200D03*
%TD*%
%TO.C,R8*%
X74549000Y-169648500D03*
X74549000Y-171473500D03*
%TD*%
D13*
%TO.C,C3*%
X77597000Y-169611000D03*
X77597000Y-171511000D03*
%TD*%
D11*
%TO.C,R54*%
X175363500Y-168558000D03*
X177188500Y-168558000D03*
%TD*%
D31*
%TO.C,C16*%
X133096000Y-83957200D03*
X133096000Y-82057200D03*
%TD*%
D18*
%TO.C,R58*%
X60579000Y-129262500D03*
X60579000Y-131087500D03*
%TD*%
D26*
%TO.C,R30*%
X78105000Y-130452500D03*
X78105000Y-128627500D03*
%TD*%
D25*
%TO.C,R14*%
X149145000Y-93894000D03*
X147320000Y-93894000D03*
%TD*%
D41*
%TO.C,U9*%
X155851413Y-145732360D03*
X156749438Y-146630386D03*
X157647464Y-147528412D03*
X158545489Y-148426437D03*
X159443515Y-149324463D03*
X160341541Y-150222488D03*
X161239566Y-151120514D03*
X162137592Y-152018540D03*
X163035618Y-152916565D03*
X163933643Y-153814591D03*
X164831669Y-154712616D03*
X165729694Y-155610642D03*
X166627720Y-156508668D03*
X167525746Y-157406693D03*
D42*
X170559234Y-156140972D03*
X171457259Y-155242947D03*
X172355285Y-154344921D03*
X173253311Y-153446895D03*
X174151336Y-152548870D03*
X175049362Y-151650844D03*
X175947387Y-150752818D03*
X176845413Y-149854793D03*
X177743439Y-148956767D03*
X178641464Y-148058742D03*
D41*
X179900114Y-145032325D03*
X179002089Y-144134299D03*
X178104063Y-143236273D03*
X177206037Y-142338248D03*
X176308012Y-141440222D03*
X175409986Y-140542197D03*
X174511961Y-139644171D03*
X173613935Y-138746145D03*
X172715909Y-137848120D03*
X171817884Y-136950094D03*
X170919858Y-136052068D03*
X170021833Y-135154043D03*
X169123807Y-134256017D03*
X168225781Y-133357992D03*
D43*
X164188202Y-145796000D03*
X165178151Y-144806050D03*
X166168101Y-143816101D03*
X165178151Y-146785949D03*
X166168101Y-145796000D03*
X167158050Y-144806050D03*
X166168101Y-147775899D03*
X167158050Y-146785949D03*
X168148000Y-145796000D03*
%TD*%
D44*
%TO.C,U1*%
X118477000Y-171375000D03*
X120777000Y-171375000D03*
X123077000Y-171375000D03*
D45*
X120777000Y-165175000D03*
%TD*%
D11*
%TO.C,R33*%
X175363500Y-165608000D03*
X177188500Y-165608000D03*
%TD*%
D35*
%TO.C,J7*%
X164398000Y-196990000D03*
X165648000Y-196990000D03*
X166898000Y-196990000D03*
X168148000Y-196990000D03*
X169398000Y-196990000D03*
X170648000Y-196990000D03*
X171898000Y-196990000D03*
D36*
X161848000Y-199890000D03*
X174448000Y-199890000D03*
%TD*%
D26*
%TO.C,R18*%
X136347200Y-83945100D03*
X136347200Y-82120100D03*
%TD*%
%TO.C,R36*%
X173536000Y-121819500D03*
X173536000Y-119994500D03*
%TD*%
D25*
%TO.C,R15*%
X145184500Y-93894000D03*
X143359500Y-93894000D03*
%TD*%
D13*
%TO.C,C21*%
X101600000Y-87000000D03*
X101600000Y-88900000D03*
%TD*%
%TO.C,C5*%
X120777000Y-174691000D03*
X120777000Y-176591000D03*
%TD*%
D46*
%TO.C,U6*%
X52324000Y-109550000D03*
X53594000Y-109550000D03*
X54864000Y-109550000D03*
X56134000Y-109550000D03*
X57404000Y-109550000D03*
X58674000Y-109550000D03*
X59944000Y-109550000D03*
X61214000Y-109550000D03*
X62484000Y-109550000D03*
X63754000Y-109550000D03*
X65024000Y-109550000D03*
X66294000Y-109550000D03*
X67564000Y-109550000D03*
X68834000Y-109550000D03*
D47*
X70084000Y-106510000D03*
X70084000Y-105240000D03*
X70084000Y-103970000D03*
X70084000Y-102700000D03*
X70084000Y-101430000D03*
X70084000Y-100160000D03*
X70084000Y-98890000D03*
X70084000Y-97620000D03*
X70084000Y-96350000D03*
X70084000Y-95080000D03*
D46*
X68834000Y-92050000D03*
X67564000Y-92050000D03*
X66294000Y-92050000D03*
X65024000Y-92050000D03*
X63754000Y-92050000D03*
X62484000Y-92050000D03*
X61214000Y-92050000D03*
X59944000Y-92050000D03*
X58674000Y-92050000D03*
X57404000Y-92050000D03*
X56134000Y-92050000D03*
X54864000Y-92050000D03*
X53594000Y-92050000D03*
X52324000Y-92050000D03*
D48*
X58264000Y-103700000D03*
X58264000Y-102300000D03*
X58264000Y-100900000D03*
X59664000Y-103700000D03*
X59664000Y-102300000D03*
X59664000Y-100900000D03*
X61064000Y-103700000D03*
X61064000Y-102300000D03*
X61064000Y-100900000D03*
%TD*%
D13*
%TO.C,C23*%
X98476000Y-87000000D03*
X98476000Y-88900000D03*
%TD*%
D49*
%TO.C,Q8*%
X86741000Y-190916560D03*
X86741000Y-191582040D03*
X86741000Y-192247520D03*
D50*
X86741000Y-192913000D03*
D49*
X89281000Y-192913000D03*
X89281000Y-192247520D03*
X89281000Y-191582040D03*
D51*
X89281000Y-190916560D03*
%TD*%
D25*
%TO.C,R21*%
X108204000Y-75692000D03*
X106379000Y-75692000D03*
%TD*%
D13*
%TO.C,C36*%
X151130000Y-146624000D03*
X151130000Y-148524000D03*
%TD*%
%TO.C,C18*%
X139319000Y-82088000D03*
X139319000Y-83988000D03*
%TD*%
D11*
%TO.C,R52*%
X122277500Y-142494000D03*
X124102500Y-142494000D03*
%TD*%
D52*
%TO.C,F1*%
X93345000Y-192834500D03*
X93345000Y-190959500D03*
%TD*%
D25*
%TO.C,R1*%
X90447500Y-159639000D03*
X88622500Y-159639000D03*
%TD*%
D18*
%TO.C,R40*%
X193983000Y-126852500D03*
X193983000Y-128677500D03*
%TD*%
D25*
%TO.C,R24*%
X75207500Y-141605000D03*
X73382500Y-141605000D03*
%TD*%
D26*
%TO.C,R12*%
X155956000Y-91488900D03*
X155956000Y-89663900D03*
%TD*%
D18*
%TO.C,R2*%
X93345000Y-182782200D03*
X93345000Y-184607200D03*
%TD*%
D31*
%TO.C,C14*%
X151892000Y-91542000D03*
X151892000Y-89642000D03*
%TD*%
D53*
%TO.C,L2*%
X108077000Y-160147000D03*
X104013000Y-160147000D03*
%TD*%
D26*
%TO.C,R29*%
X74930000Y-130452500D03*
X74930000Y-128627500D03*
%TD*%
%TO.C,R19*%
X94996000Y-82663000D03*
X94996000Y-80838000D03*
%TD*%
D24*
%TO.C,Q6*%
X53848000Y-80264000D03*
X55748000Y-80264000D03*
X54798000Y-78389000D03*
%TD*%
D40*
%TO.C,F3*%
X92915500Y-167767000D03*
X94790500Y-167767000D03*
%TD*%
D54*
%TO.C,D1*%
X99517200Y-177165000D03*
X93268800Y-177165000D03*
%TD*%
D25*
%TO.C,R16*%
X112268000Y-93980000D03*
X110443000Y-93980000D03*
%TD*%
D26*
%TO.C,R46*%
X99314000Y-197000500D03*
X99314000Y-195175500D03*
%TD*%
D55*
%TO.C,J28*%
X57010000Y-144924000D03*
X57010000Y-146174000D03*
X57010000Y-147424000D03*
X57010000Y-148674000D03*
X57010000Y-149924000D03*
X57010000Y-151174000D03*
X57010000Y-152424000D03*
D56*
X54110000Y-142374000D03*
X54110000Y-154974000D03*
%TD*%
D26*
%TO.C,R28*%
X85852000Y-119784500D03*
X85852000Y-117959500D03*
%TD*%
D18*
%TO.C,R37*%
X177981000Y-125328500D03*
X177981000Y-127153500D03*
%TD*%
D26*
%TO.C,R57*%
X60706000Y-124737500D03*
X60706000Y-122912500D03*
%TD*%
D57*
%TO.C,LED1*%
X84874100Y-159639000D03*
X86575900Y-159639000D03*
%TD*%
D13*
%TO.C,C19*%
X101600000Y-80904000D03*
X101600000Y-82804000D03*
%TD*%
D14*
%TO.C,Q1*%
X76865000Y-115890000D03*
X76865000Y-117790000D03*
X78740000Y-116840000D03*
%TD*%
D58*
%TO.C,U10*%
X155874616Y-163587001D03*
X155874616Y-164236999D03*
X155874616Y-164887001D03*
X155874616Y-165536999D03*
X155874616Y-166187001D03*
X155874616Y-166836999D03*
X155874616Y-167487001D03*
X155874616Y-168136999D03*
X161625384Y-168136999D03*
X161625384Y-167487001D03*
X161625384Y-166836999D03*
X161625384Y-166187001D03*
X161625384Y-165536999D03*
X161625384Y-164887001D03*
X161625384Y-164236999D03*
X161625384Y-163587001D03*
%TD*%
D18*
%TO.C,R47*%
X82296000Y-195175500D03*
X82296000Y-197000500D03*
%TD*%
D25*
%TO.C,R20*%
X144676500Y-74844000D03*
X142851500Y-74844000D03*
%TD*%
D19*
%TO.C,C32*%
X181222000Y-118875000D03*
X183122000Y-118875000D03*
%TD*%
D18*
%TO.C,R50*%
X192913000Y-105894500D03*
X192913000Y-107719500D03*
%TD*%
D19*
%TO.C,C33*%
X181222000Y-116716000D03*
X183122000Y-116716000D03*
%TD*%
D59*
%TO.C,IC1*%
X79068676Y-177564415D03*
X79068676Y-178064541D03*
X79068676Y-178564667D03*
X79068676Y-179064793D03*
X79068676Y-179564919D03*
X79068676Y-180065045D03*
X79068676Y-180565171D03*
X79068676Y-181065297D03*
X79068676Y-181565423D03*
X79068676Y-182065549D03*
X79068676Y-182565675D03*
X79068676Y-183065801D03*
D60*
X79710661Y-183718708D03*
X80210787Y-183718708D03*
X80710913Y-183718708D03*
X81211039Y-183718708D03*
X81711165Y-183718708D03*
X82211291Y-183718708D03*
D59*
X82853276Y-183065801D03*
X82853276Y-182565675D03*
X82853276Y-182065549D03*
X82853276Y-181565423D03*
X82853276Y-181065297D03*
X82853276Y-180565171D03*
X82853276Y-180065045D03*
X82853276Y-179564919D03*
X82853276Y-179064793D03*
X82853276Y-178564667D03*
X82853276Y-178064541D03*
X82853276Y-177564415D03*
D60*
X82211291Y-176911508D03*
X81711165Y-176911508D03*
X81211039Y-176911508D03*
X80710913Y-176911508D03*
X80210787Y-176911508D03*
X79710661Y-176911508D03*
D61*
X80260952Y-178385108D03*
X81661000Y-178385108D03*
X80260952Y-180315108D03*
X81661000Y-180315108D03*
X80260952Y-182245000D03*
X81661000Y-182245000D03*
D62*
X79148476Y-177002607D03*
X79148476Y-183627609D03*
X82773476Y-183627609D03*
X82773476Y-177002607D03*
%TD*%
D13*
%TO.C,C35*%
X153924000Y-178628000D03*
X153924000Y-180528000D03*
%TD*%
D11*
%TO.C,R32*%
X175363500Y-162658000D03*
X177188500Y-162658000D03*
%TD*%
D14*
%TO.C,Q3*%
X192235000Y-121100000D03*
X192235000Y-123000000D03*
X194110000Y-122050000D03*
%TD*%
D13*
%TO.C,C13*%
X97409000Y-158689000D03*
X97409000Y-160589000D03*
%TD*%
D19*
%TO.C,C30*%
X52136000Y-115316000D03*
X54036000Y-115316000D03*
%TD*%
D26*
%TO.C,R42*%
X188976000Y-158900500D03*
X188976000Y-157075500D03*
%TD*%
D31*
%TO.C,C10*%
X112649000Y-167193000D03*
X112649000Y-165293000D03*
%TD*%
D18*
%TO.C,R4*%
X86741000Y-169648500D03*
X86741000Y-171473500D03*
%TD*%
D23*
%TO.C,LED2*%
X93345000Y-188341000D03*
X93345000Y-186639200D03*
%TD*%
D15*
%TO.C,C7*%
X67945000Y-172544000D03*
X67945000Y-169594000D03*
%TD*%
D25*
%TO.C,R17*%
X108608500Y-93980000D03*
X106783500Y-93980000D03*
%TD*%
D39*
%TO.C,CR2*%
X185857000Y-60750000D03*
X188143000Y-60750000D03*
%TD*%
D11*
%TO.C,R10*%
X105132500Y-173761400D03*
X106957500Y-173761400D03*
%TD*%
D33*
%TO.C,U5*%
X74091800Y-134659999D03*
X74091800Y-135159998D03*
X74091800Y-135660000D03*
X74091800Y-136159999D03*
X74091800Y-136659998D03*
X74091800Y-137160000D03*
X74091800Y-137659999D03*
D32*
X74915900Y-138484099D03*
X75415899Y-138484099D03*
X75915901Y-138484099D03*
X76415900Y-138484099D03*
X76915899Y-138484099D03*
X77415901Y-138484099D03*
X77915900Y-138484099D03*
D33*
X78740000Y-137659999D03*
X78740000Y-137160000D03*
X78740000Y-136659998D03*
X78740000Y-136159999D03*
X78740000Y-135660000D03*
X78740000Y-135159998D03*
X78740000Y-134659999D03*
D32*
X77915900Y-133835899D03*
X77415901Y-133835899D03*
X76915899Y-133835899D03*
X76415900Y-133835899D03*
X75915901Y-133835899D03*
X75415899Y-133835899D03*
X74915900Y-133835899D03*
D34*
X76415900Y-136159999D03*
%TD*%
D11*
%TO.C,R27*%
X77192500Y-141605000D03*
X79017500Y-141605000D03*
%TD*%
D26*
%TO.C,R25*%
X72390000Y-117752500D03*
X72390000Y-115927500D03*
%TD*%
D31*
%TO.C,C26*%
X82550000Y-141920000D03*
X82550000Y-140020000D03*
%TD*%
D18*
%TO.C,R34*%
X179251000Y-115131000D03*
X179251000Y-116956000D03*
%TD*%
%TO.C,R44*%
X153924000Y-174093500D03*
X153924000Y-175918500D03*
%TD*%
M02*
