%TF.GenerationSoftware,KiCad,Pcbnew,7.0.9*%
%TF.CreationDate,2024-03-24T19:27:45-04:00*%
%TF.ProjectId,CSTAR,43535441-522e-46b6-9963-61645f706362,rev?*%
%TF.SameCoordinates,Original*%
%TF.FileFunction,Soldermask,Top*%
%TF.FilePolarity,Negative*%
%FSLAX46Y46*%
G04 Gerber Fmt 4.6, Leading zero omitted, Abs format (unit mm)*
G04 Created by KiCad (PCBNEW 7.0.9) date 2024-03-24 19:27:45*
%MOMM*%
%LPD*%
G01*
G04 APERTURE LIST*
G04 Aperture macros list*
%AMRoundRect*
0 Rectangle with rounded corners*
0 $1 Rounding radius*
0 $2 $3 $4 $5 $6 $7 $8 $9 X,Y pos of 4 corners*
0 Add a 4 corners polygon primitive as box body*
4,1,4,$2,$3,$4,$5,$6,$7,$8,$9,$2,$3,0*
0 Add four circle primitives for the rounded corners*
1,1,$1+$1,$2,$3*
1,1,$1+$1,$4,$5*
1,1,$1+$1,$6,$7*
1,1,$1+$1,$8,$9*
0 Add four rect primitives between the rounded corners*
20,1,$1+$1,$2,$3,$4,$5,0*
20,1,$1+$1,$4,$5,$6,$7,0*
20,1,$1+$1,$6,$7,$8,$9,0*
20,1,$1+$1,$8,$9,$2,$3,0*%
%AMFreePoly0*
4,1,9,0.533400,-0.170180,0.127000,-0.170180,0.127000,-0.127000,-0.533400,-0.127000,-0.533400,0.127000,0.127000,0.127000,0.127000,1.480820,0.533400,1.480820,0.533400,-0.170180,0.533400,-0.170180,$1*%
%AMFreePoly1*
4,1,9,0.177800,0.127000,0.533400,0.127000,0.533400,-0.127000,0.177800,-0.127000,0.177800,-2.153920,-1.320800,-2.153920,-1.320800,0.157480,0.177800,0.157480,0.177800,0.127000,0.177800,0.127000,$1*%
G04 Aperture macros list end*
%ADD10C,0.010000*%
%ADD11R,1.700000X1.700000*%
%ADD12O,1.700000X1.700000*%
%ADD13C,0.700000*%
%ADD14RoundRect,0.050000X-0.570000X0.300000X-0.570000X-0.300000X0.570000X-0.300000X0.570000X0.300000X0*%
%ADD15RoundRect,0.050000X-0.570000X0.150000X-0.570000X-0.150000X0.570000X-0.150000X0.570000X0.150000X0*%
%ADD16O,2.354000X1.254000*%
%ADD17O,2.054000X1.254000*%
%ADD18RoundRect,0.050000X0.570000X-0.150000X0.570000X0.150000X-0.570000X0.150000X-0.570000X-0.150000X0*%
%ADD19RoundRect,0.050000X0.570000X-0.300000X0.570000X0.300000X-0.570000X0.300000X-0.570000X-0.300000X0*%
%ADD20C,2.000000*%
%ADD21RoundRect,0.250000X-0.262500X-0.450000X0.262500X-0.450000X0.262500X0.450000X-0.262500X0.450000X0*%
%ADD22RoundRect,0.250000X0.250000X0.475000X-0.250000X0.475000X-0.250000X-0.475000X0.250000X-0.475000X0*%
%ADD23RoundRect,0.250000X-0.475000X0.250000X-0.475000X-0.250000X0.475000X-0.250000X0.475000X0.250000X0*%
%ADD24C,1.320800*%
%ADD25RoundRect,0.150000X-0.587500X-0.150000X0.587500X-0.150000X0.587500X0.150000X-0.587500X0.150000X0*%
%ADD26RoundRect,0.250000X0.650000X-0.325000X0.650000X0.325000X-0.650000X0.325000X-0.650000X-0.325000X0*%
%ADD27RoundRect,0.150000X-0.150000X0.587500X-0.150000X-0.587500X0.150000X-0.587500X0.150000X0.587500X0*%
%ADD28R,3.429000X2.489200*%
%ADD29RoundRect,0.250000X-0.450000X0.262500X-0.450000X-0.262500X0.450000X-0.262500X0.450000X0.262500X0*%
%ADD30RoundRect,0.250000X-0.250000X-0.475000X0.250000X-0.475000X0.250000X0.475000X-0.250000X0.475000X0*%
%ADD31R,0.812800X1.447800*%
%ADD32R,0.609600X0.304800*%
%ADD33R,0.304800X1.727200*%
%ADD34R,0.990600X0.406400*%
%ADD35RoundRect,0.150000X0.150000X-0.587500X0.150000X0.587500X-0.150000X0.587500X-0.150000X-0.587500X0*%
%ADD36RoundRect,0.250000X0.262500X0.450000X-0.262500X0.450000X-0.262500X-0.450000X0.262500X-0.450000X0*%
%ADD37RoundRect,0.250000X0.450000X-0.262500X0.450000X0.262500X-0.450000X0.262500X-0.450000X-0.262500X0*%
%ADD38R,1.400000X0.449999*%
%ADD39C,0.499999*%
%ADD40R,3.099999X5.180000*%
%ADD41RoundRect,0.250000X0.475000X-0.250000X0.475000X0.250000X-0.475000X0.250000X-0.475000X-0.250000X0*%
%ADD42R,0.254000X0.965200*%
%ADD43R,0.965200X0.254000*%
%ADD44R,3.352800X3.352800*%
%ADD45R,1.981200X0.558800*%
%ADD46R,0.558800X1.981200*%
%ADD47RoundRect,0.102000X-0.749000X0.749000X-0.749000X-0.749000X0.749000X-0.749000X0.749000X0.749000X0*%
%ADD48C,1.702000*%
%ADD49R,1.117600X0.406400*%
%ADD50RoundRect,0.243750X-0.243750X-0.456250X0.243750X-0.456250X0.243750X0.456250X-0.243750X0.456250X0*%
%ADD51RoundRect,0.102000X-0.212132X-0.848528X0.848528X0.212132X0.212132X0.848528X-0.848528X-0.212132X0*%
%ADD52RoundRect,0.102000X0.212132X-0.848528X0.848528X-0.212132X-0.212132X0.848528X-0.848528X0.212132X0*%
%ADD53RoundRect,0.102000X0.000000X-0.636396X0.636396X0.000000X0.000000X0.636396X-0.636396X0.000000X0*%
%ADD54RoundRect,0.102000X0.600000X-1.100000X0.600000X1.100000X-0.600000X1.100000X-0.600000X-1.100000X0*%
%ADD55RoundRect,0.102000X1.750000X-1.100000X1.750000X1.100000X-1.750000X1.100000X-1.750000X-1.100000X0*%
%ADD56RoundRect,0.102000X1.500000X1.500000X-1.500000X1.500000X-1.500000X-1.500000X1.500000X-1.500000X0*%
%ADD57C,3.204000*%
%ADD58RoundRect,0.102000X0.450000X-0.750000X0.450000X0.750000X-0.450000X0.750000X-0.450000X-0.750000X0*%
%ADD59RoundRect,0.102000X0.750000X-0.450000X0.750000X0.450000X-0.750000X0.450000X-0.750000X-0.450000X0*%
%ADD60RoundRect,0.102000X0.450000X-0.450000X0.450000X0.450000X-0.450000X0.450000X-0.450000X-0.450000X0*%
%ADD61R,1.066800X0.254000*%
%ADD62FreePoly0,0.000000*%
%ADD63FreePoly1,0.000000*%
%ADD64RoundRect,0.243750X0.456250X-0.243750X0.456250X0.243750X-0.456250X0.243750X-0.456250X-0.243750X0*%
%ADD65R,1.981200X2.794000*%
%ADD66RoundRect,0.102000X1.858000X1.858000X-1.858000X1.858000X-1.858000X-1.858000X1.858000X-1.858000X0*%
%ADD67C,3.920000*%
%ADD68O,1.404000X2.604000*%
%ADD69R,2.184400X3.200400*%
%ADD70R,0.406400X0.990600*%
%ADD71R,1.955432X0.420766*%
%ADD72C,1.803400*%
%ADD73R,0.812800X0.228600*%
%ADD74R,0.228600X0.812800*%
%ADD75R,1.193800X1.727200*%
%ADD76R,0.381000X0.381000*%
%ADD77RoundRect,0.102000X0.749000X-0.749000X0.749000X0.749000X-0.749000X0.749000X-0.749000X-0.749000X0*%
G04 APERTURE END LIST*
%TO.C,J26*%
D10*
X135746200Y-56186200D02*
X133493800Y-56186200D01*
X133493800Y-53033800D01*
X135746200Y-53033800D01*
X135746200Y-56186200D01*
G36*
X135746200Y-56186200D02*
G01*
X133493800Y-56186200D01*
X133493800Y-53033800D01*
X135746200Y-53033800D01*
X135746200Y-56186200D01*
G37*
X132546200Y-58386200D02*
X131593800Y-58386200D01*
X131593800Y-56633800D01*
X132546200Y-56633800D01*
X132546200Y-58386200D01*
G36*
X132546200Y-58386200D02*
G01*
X131593800Y-58386200D01*
X131593800Y-56633800D01*
X132546200Y-56633800D01*
X132546200Y-58386200D01*
G37*
X131296200Y-58386200D02*
X130343800Y-58386200D01*
X130343800Y-56633800D01*
X131296200Y-56633800D01*
X131296200Y-58386200D01*
G36*
X131296200Y-58386200D02*
G01*
X130343800Y-58386200D01*
X130343800Y-56633800D01*
X131296200Y-56633800D01*
X131296200Y-58386200D01*
G37*
X130046200Y-58386200D02*
X129093800Y-58386200D01*
X129093800Y-56633800D01*
X130046200Y-56633800D01*
X130046200Y-58386200D01*
G36*
X130046200Y-58386200D02*
G01*
X129093800Y-58386200D01*
X129093800Y-56633800D01*
X130046200Y-56633800D01*
X130046200Y-58386200D01*
G37*
X128796200Y-58386200D02*
X127843800Y-58386200D01*
X127843800Y-56633800D01*
X128796200Y-56633800D01*
X128796200Y-58386200D01*
G36*
X128796200Y-58386200D02*
G01*
X127843800Y-58386200D01*
X127843800Y-56633800D01*
X128796200Y-56633800D01*
X128796200Y-58386200D01*
G37*
X127546200Y-58386200D02*
X126593800Y-58386200D01*
X126593800Y-56633800D01*
X127546200Y-56633800D01*
X127546200Y-58386200D01*
G36*
X127546200Y-58386200D02*
G01*
X126593800Y-58386200D01*
X126593800Y-56633800D01*
X127546200Y-56633800D01*
X127546200Y-58386200D01*
G37*
X126296200Y-58386200D02*
X125343800Y-58386200D01*
X125343800Y-56633800D01*
X126296200Y-56633800D01*
X126296200Y-58386200D01*
G36*
X126296200Y-58386200D02*
G01*
X125343800Y-58386200D01*
X125343800Y-56633800D01*
X126296200Y-56633800D01*
X126296200Y-58386200D01*
G37*
X125046200Y-58386200D02*
X124093800Y-58386200D01*
X124093800Y-56633800D01*
X125046200Y-56633800D01*
X125046200Y-58386200D01*
G36*
X125046200Y-58386200D02*
G01*
X124093800Y-58386200D01*
X124093800Y-56633800D01*
X125046200Y-56633800D01*
X125046200Y-58386200D01*
G37*
X123146200Y-56186200D02*
X120893800Y-56186200D01*
X120893800Y-53033800D01*
X123146200Y-53033800D01*
X123146200Y-56186200D01*
G36*
X123146200Y-56186200D02*
G01*
X120893800Y-56186200D01*
X120893800Y-53033800D01*
X123146200Y-53033800D01*
X123146200Y-56186200D01*
G37*
%TO.C,J7*%
X162974200Y-201466200D02*
X160721800Y-201466200D01*
X160721800Y-198313800D01*
X162974200Y-198313800D01*
X162974200Y-201466200D01*
G36*
X162974200Y-201466200D02*
G01*
X160721800Y-201466200D01*
X160721800Y-198313800D01*
X162974200Y-198313800D01*
X162974200Y-201466200D01*
G37*
X164874200Y-197866200D02*
X163921800Y-197866200D01*
X163921800Y-196113800D01*
X164874200Y-196113800D01*
X164874200Y-197866200D01*
G36*
X164874200Y-197866200D02*
G01*
X163921800Y-197866200D01*
X163921800Y-196113800D01*
X164874200Y-196113800D01*
X164874200Y-197866200D01*
G37*
X166124200Y-197866200D02*
X165171800Y-197866200D01*
X165171800Y-196113800D01*
X166124200Y-196113800D01*
X166124200Y-197866200D01*
G36*
X166124200Y-197866200D02*
G01*
X165171800Y-197866200D01*
X165171800Y-196113800D01*
X166124200Y-196113800D01*
X166124200Y-197866200D01*
G37*
X167374200Y-197866200D02*
X166421800Y-197866200D01*
X166421800Y-196113800D01*
X167374200Y-196113800D01*
X167374200Y-197866200D01*
G36*
X167374200Y-197866200D02*
G01*
X166421800Y-197866200D01*
X166421800Y-196113800D01*
X167374200Y-196113800D01*
X167374200Y-197866200D01*
G37*
X168624200Y-197866200D02*
X167671800Y-197866200D01*
X167671800Y-196113800D01*
X168624200Y-196113800D01*
X168624200Y-197866200D01*
G36*
X168624200Y-197866200D02*
G01*
X167671800Y-197866200D01*
X167671800Y-196113800D01*
X168624200Y-196113800D01*
X168624200Y-197866200D01*
G37*
X169874200Y-197866200D02*
X168921800Y-197866200D01*
X168921800Y-196113800D01*
X169874200Y-196113800D01*
X169874200Y-197866200D01*
G36*
X169874200Y-197866200D02*
G01*
X168921800Y-197866200D01*
X168921800Y-196113800D01*
X169874200Y-196113800D01*
X169874200Y-197866200D01*
G37*
X171124200Y-197866200D02*
X170171800Y-197866200D01*
X170171800Y-196113800D01*
X171124200Y-196113800D01*
X171124200Y-197866200D01*
G36*
X171124200Y-197866200D02*
G01*
X170171800Y-197866200D01*
X170171800Y-196113800D01*
X171124200Y-196113800D01*
X171124200Y-197866200D01*
G37*
X172374200Y-197866200D02*
X171421800Y-197866200D01*
X171421800Y-196113800D01*
X172374200Y-196113800D01*
X172374200Y-197866200D01*
G36*
X172374200Y-197866200D02*
G01*
X171421800Y-197866200D01*
X171421800Y-196113800D01*
X172374200Y-196113800D01*
X172374200Y-197866200D01*
G37*
X175574200Y-201466200D02*
X173321800Y-201466200D01*
X173321800Y-198313800D01*
X175574200Y-198313800D01*
X175574200Y-201466200D01*
G36*
X175574200Y-201466200D02*
G01*
X173321800Y-201466200D01*
X173321800Y-198313800D01*
X175574200Y-198313800D01*
X175574200Y-201466200D01*
G37*
%TO.C,Q8*%
G36*
X87274400Y-193065400D02*
G01*
X86868000Y-193065400D01*
X86868000Y-191429640D01*
X87274400Y-191429640D01*
X87274400Y-193065400D01*
G37*
%TO.C,J28*%
X55686200Y-143500200D02*
X52533800Y-143500200D01*
X52533800Y-141247800D01*
X55686200Y-141247800D01*
X55686200Y-143500200D01*
G36*
X55686200Y-143500200D02*
G01*
X52533800Y-143500200D01*
X52533800Y-141247800D01*
X55686200Y-141247800D01*
X55686200Y-143500200D01*
G37*
X57886200Y-145400200D02*
X56133800Y-145400200D01*
X56133800Y-144447800D01*
X57886200Y-144447800D01*
X57886200Y-145400200D01*
G36*
X57886200Y-145400200D02*
G01*
X56133800Y-145400200D01*
X56133800Y-144447800D01*
X57886200Y-144447800D01*
X57886200Y-145400200D01*
G37*
X57886200Y-146650200D02*
X56133800Y-146650200D01*
X56133800Y-145697800D01*
X57886200Y-145697800D01*
X57886200Y-146650200D01*
G36*
X57886200Y-146650200D02*
G01*
X56133800Y-146650200D01*
X56133800Y-145697800D01*
X57886200Y-145697800D01*
X57886200Y-146650200D01*
G37*
X57886200Y-147900200D02*
X56133800Y-147900200D01*
X56133800Y-146947800D01*
X57886200Y-146947800D01*
X57886200Y-147900200D01*
G36*
X57886200Y-147900200D02*
G01*
X56133800Y-147900200D01*
X56133800Y-146947800D01*
X57886200Y-146947800D01*
X57886200Y-147900200D01*
G37*
X57886200Y-149150200D02*
X56133800Y-149150200D01*
X56133800Y-148197800D01*
X57886200Y-148197800D01*
X57886200Y-149150200D01*
G36*
X57886200Y-149150200D02*
G01*
X56133800Y-149150200D01*
X56133800Y-148197800D01*
X57886200Y-148197800D01*
X57886200Y-149150200D01*
G37*
X57886200Y-150400200D02*
X56133800Y-150400200D01*
X56133800Y-149447800D01*
X57886200Y-149447800D01*
X57886200Y-150400200D01*
G36*
X57886200Y-150400200D02*
G01*
X56133800Y-150400200D01*
X56133800Y-149447800D01*
X57886200Y-149447800D01*
X57886200Y-150400200D01*
G37*
X57886200Y-151650200D02*
X56133800Y-151650200D01*
X56133800Y-150697800D01*
X57886200Y-150697800D01*
X57886200Y-151650200D01*
G36*
X57886200Y-151650200D02*
G01*
X56133800Y-151650200D01*
X56133800Y-150697800D01*
X57886200Y-150697800D01*
X57886200Y-151650200D01*
G37*
X57886200Y-152900200D02*
X56133800Y-152900200D01*
X56133800Y-151947800D01*
X57886200Y-151947800D01*
X57886200Y-152900200D01*
G36*
X57886200Y-152900200D02*
G01*
X56133800Y-152900200D01*
X56133800Y-151947800D01*
X57886200Y-151947800D01*
X57886200Y-152900200D01*
G37*
X55686200Y-156100200D02*
X52533800Y-156100200D01*
X52533800Y-153847800D01*
X55686200Y-153847800D01*
X55686200Y-156100200D01*
G36*
X55686200Y-156100200D02*
G01*
X52533800Y-156100200D01*
X52533800Y-153847800D01*
X55686200Y-153847800D01*
X55686200Y-156100200D01*
G37*
%TD*%
D11*
%TO.C,J25*%
X54500000Y-119200000D03*
D12*
X57040000Y-119200000D03*
X59580000Y-119200000D03*
X62120000Y-119200000D03*
X64660000Y-119200000D03*
X67200000Y-119200000D03*
%TD*%
D13*
%TO.C,J31*%
X57287500Y-124210000D03*
X57287500Y-129990000D03*
D14*
X58357500Y-123900000D03*
X58357500Y-124700000D03*
D15*
X58357500Y-125850000D03*
X58357500Y-126850000D03*
X58357500Y-127350000D03*
X58357500Y-128350000D03*
D14*
X58357500Y-130300000D03*
X58357500Y-129500000D03*
D15*
X58357500Y-128850000D03*
X58357500Y-127850000D03*
X58357500Y-126350000D03*
X58357500Y-125350000D03*
D16*
X57787500Y-122780000D03*
X57787500Y-131420000D03*
D17*
X53637500Y-122780000D03*
X53637500Y-131420000D03*
%TD*%
%TO.C,J27*%
X200400000Y-99280000D03*
X200400000Y-107920000D03*
D16*
X196250000Y-99280000D03*
X196250000Y-107920000D03*
D18*
X195680000Y-105350000D03*
X195680000Y-104350000D03*
X195680000Y-102850000D03*
X195680000Y-101850000D03*
D19*
X195680000Y-101200000D03*
X195680000Y-100400000D03*
D18*
X195680000Y-102350000D03*
X195680000Y-103350000D03*
X195680000Y-103850000D03*
X195680000Y-104850000D03*
D19*
X195680000Y-106000000D03*
X195680000Y-106800000D03*
D13*
X196750000Y-100710000D03*
X196750000Y-106490000D03*
%TD*%
D20*
%TO.C,TP9*%
X123444000Y-90170000D03*
%TD*%
D21*
%TO.C,R23*%
X69562500Y-138875000D03*
X71387500Y-138875000D03*
%TD*%
D11*
%TO.C,J10*%
X162560000Y-68580000D03*
D12*
X162560000Y-71120000D03*
X162560000Y-73660000D03*
%TD*%
D22*
%TO.C,C2*%
X74991000Y-180213000D03*
X73091000Y-180213000D03*
%TD*%
D23*
%TO.C,C38*%
X82296000Y-191074000D03*
X82296000Y-192974000D03*
%TD*%
D24*
%TO.C,J18*%
X143320000Y-52793000D03*
X145319999Y-52793000D03*
X147320000Y-52793000D03*
X149319998Y-52793000D03*
%TD*%
D23*
%TO.C,C20*%
X133045200Y-87289200D03*
X133045200Y-89189200D03*
%TD*%
%TO.C,C22*%
X139293600Y-87279400D03*
X139293600Y-89179400D03*
%TD*%
D20*
%TO.C,TP3*%
X127635000Y-172339000D03*
%TD*%
%TO.C,TP14*%
X191770000Y-61976000D03*
%TD*%
D23*
%TO.C,C4*%
X86741000Y-182819000D03*
X86741000Y-184719000D03*
%TD*%
D11*
%TO.C,J2*%
X132461000Y-168153000D03*
D12*
X132461000Y-165613000D03*
%TD*%
D20*
%TO.C,TP7*%
X93853000Y-159639000D03*
%TD*%
D25*
%TO.C,Q4*%
X188014000Y-114938000D03*
X188014000Y-116838000D03*
X189889000Y-115888000D03*
%TD*%
D26*
%TO.C,C8*%
X64389000Y-172544000D03*
X64389000Y-169594000D03*
%TD*%
D27*
%TO.C,Q2*%
X74277500Y-122942500D03*
X72377500Y-122942500D03*
X73327500Y-124817500D03*
%TD*%
D28*
%TO.C,L1*%
X66421000Y-181406800D03*
X66421000Y-175971200D03*
%TD*%
D29*
%TO.C,R41*%
X191824000Y-126852500D03*
X191824000Y-128677500D03*
%TD*%
D30*
%TO.C,C31*%
X52136000Y-113284000D03*
X54036000Y-113284000D03*
%TD*%
D29*
%TO.C,R3*%
X80645000Y-169648500D03*
X80645000Y-171473500D03*
%TD*%
D31*
%TO.C,PS1*%
X107492988Y-165757784D03*
D32*
X107392978Y-166808988D03*
X107392978Y-167259000D03*
X107392988Y-167709012D03*
X109092990Y-167709012D03*
X109093000Y-167259000D03*
X109093000Y-166808988D03*
D31*
X108992990Y-165757784D03*
D33*
X108242989Y-165618084D03*
%TD*%
D34*
%TO.C,LED4*%
X59817000Y-178523900D03*
X59817000Y-176822100D03*
%TD*%
D11*
%TO.C,J22*%
X137668000Y-119883000D03*
D12*
X137668000Y-122423000D03*
%TD*%
D35*
%TO.C,Q5*%
X58232000Y-80264000D03*
X60132000Y-80264000D03*
X59182000Y-78389000D03*
%TD*%
D36*
%TO.C,R11*%
X106957500Y-179857400D03*
X105132500Y-179857400D03*
%TD*%
D37*
%TO.C,R13*%
X119126000Y-91741000D03*
X119126000Y-89916000D03*
%TD*%
D20*
%TO.C,TP12*%
X118364000Y-76962000D03*
%TD*%
D35*
%TO.C,Q7*%
X62738000Y-80264000D03*
X64638000Y-80264000D03*
X63688000Y-78389000D03*
%TD*%
D38*
%TO.C,U2*%
X143353998Y-80695000D03*
X143353998Y-81345001D03*
X143353998Y-81995000D03*
X143353998Y-82645001D03*
X143353998Y-83294999D03*
X143353998Y-83945001D03*
X143353998Y-84594999D03*
X143353998Y-85245001D03*
X143353998Y-85894999D03*
X143353998Y-86545001D03*
X143353998Y-87194999D03*
X143353998Y-87845000D03*
X143353998Y-88494999D03*
X143353998Y-89145000D03*
X149253999Y-89145000D03*
X149253999Y-88494999D03*
X149253999Y-87845000D03*
X149253999Y-87194999D03*
X149253999Y-86545001D03*
X149253999Y-85894999D03*
X149253999Y-85245001D03*
X149253999Y-84594999D03*
X149253999Y-83945001D03*
X149253999Y-83294999D03*
X149253999Y-82645001D03*
X149253999Y-81995000D03*
X149253999Y-81345001D03*
X149253999Y-80695000D03*
D39*
X145203997Y-82719999D03*
X145203997Y-83820000D03*
X145203997Y-84920000D03*
X145203997Y-86020000D03*
X145203997Y-87120001D03*
X146303997Y-82719999D03*
D40*
X146303997Y-84920000D03*
D39*
X146303997Y-87120001D03*
X146304000Y-83820000D03*
X146304000Y-84920000D03*
X146304000Y-86020000D03*
X147403997Y-82719999D03*
X147403997Y-83820000D03*
X147403997Y-84920000D03*
X147403997Y-86020000D03*
X147403997Y-87120001D03*
%TD*%
D37*
%TO.C,R51*%
X192913000Y-101369500D03*
X192913000Y-99544500D03*
%TD*%
D29*
%TO.C,R9*%
X59817000Y-172696500D03*
X59817000Y-174521500D03*
%TD*%
D20*
%TO.C,TP19*%
X88646000Y-60452000D03*
%TD*%
D24*
%TO.C,J17*%
X157553401Y-52832000D03*
X159553400Y-52832000D03*
X161553401Y-52832000D03*
X163553399Y-52832000D03*
%TD*%
D11*
%TO.C,J3*%
X98933000Y-164460000D03*
D12*
X98933000Y-167000000D03*
%TD*%
D24*
%TO.C,J11*%
X171260000Y-52832000D03*
X173259999Y-52832000D03*
X175260000Y-52832000D03*
X177259998Y-52832000D03*
%TD*%
D11*
%TO.C,J20*%
X142748000Y-119883000D03*
D12*
X142748000Y-122423000D03*
%TD*%
D41*
%TO.C,C34*%
X188976000Y-154112000D03*
X188976000Y-152212000D03*
%TD*%
D37*
%TO.C,R5*%
X83693000Y-171473500D03*
X83693000Y-169648500D03*
%TD*%
D11*
%TO.C,J6*%
X173482000Y-186576000D03*
D12*
X173482000Y-184036000D03*
%TD*%
D41*
%TO.C,C29*%
X70104000Y-77404000D03*
X70104000Y-75504000D03*
%TD*%
D20*
%TO.C,TP10*%
X68580000Y-71374000D03*
%TD*%
D23*
%TO.C,C1*%
X123317000Y-174691000D03*
X123317000Y-176591000D03*
%TD*%
D42*
%TO.C,U8*%
X186935900Y-121019900D03*
X186435901Y-121019900D03*
X185935899Y-121019900D03*
X185435900Y-121019900D03*
X184935901Y-121019900D03*
X184435899Y-121019900D03*
X183935900Y-121019900D03*
D43*
X183111800Y-121844000D03*
X183111800Y-122343999D03*
X183111800Y-122844001D03*
X183111800Y-123344000D03*
X183111800Y-123843999D03*
X183111800Y-124344001D03*
X183111800Y-124844000D03*
D42*
X183935900Y-125668100D03*
X184435899Y-125668100D03*
X184935901Y-125668100D03*
X185435900Y-125668100D03*
X185935899Y-125668100D03*
X186435901Y-125668100D03*
X186935900Y-125668100D03*
D43*
X187760000Y-124844000D03*
X187760000Y-124344001D03*
X187760000Y-123843999D03*
X187760000Y-123344000D03*
X187760000Y-122844001D03*
X187760000Y-122343999D03*
X187760000Y-121844000D03*
D44*
X185435900Y-123344000D03*
%TD*%
D37*
%TO.C,R39*%
X196396000Y-117120500D03*
X196396000Y-115295500D03*
%TD*%
%TO.C,R31*%
X70104000Y-81684500D03*
X70104000Y-79859500D03*
%TD*%
D23*
%TO.C,C12*%
X100457000Y-158689000D03*
X100457000Y-160589000D03*
%TD*%
D11*
%TO.C,J5*%
X169545000Y-186576000D03*
D12*
X169545000Y-184036000D03*
%TD*%
D21*
%TO.C,R22*%
X69572500Y-141605000D03*
X71397500Y-141605000D03*
%TD*%
D37*
%TO.C,R53*%
X170434000Y-111017700D03*
X170434000Y-109192700D03*
%TD*%
%TO.C,R35*%
X179251000Y-120446000D03*
X179251000Y-118621000D03*
%TD*%
D20*
%TO.C,TP21*%
X82727800Y-60223400D03*
%TD*%
D45*
%TO.C,U4*%
X134797800Y-147574000D03*
X134797800Y-146304000D03*
X134797800Y-145034000D03*
X134797800Y-143764000D03*
X134797800Y-142494000D03*
X134797800Y-141224000D03*
X134797800Y-139954000D03*
X129870200Y-139954000D03*
X129870200Y-141224000D03*
X129870200Y-142494000D03*
X129870200Y-143764000D03*
X129870200Y-145034000D03*
X129870200Y-146304000D03*
X129870200Y-147574000D03*
%TD*%
D30*
%TO.C,C11*%
X105095000Y-176809400D03*
X106995000Y-176809400D03*
%TD*%
D21*
%TO.C,R45*%
X117959500Y-142494000D03*
X119784500Y-142494000D03*
%TD*%
D41*
%TO.C,C17*%
X98552000Y-82804000D03*
X98552000Y-80904000D03*
%TD*%
%TO.C,C27*%
X85471000Y-141920000D03*
X85471000Y-140020000D03*
%TD*%
D29*
%TO.C,R6*%
X118237000Y-174728500D03*
X118237000Y-176553500D03*
%TD*%
D41*
%TO.C,C6*%
X71501000Y-171511000D03*
X71501000Y-169611000D03*
%TD*%
D29*
%TO.C,R7*%
X74549000Y-173712500D03*
X74549000Y-175537500D03*
%TD*%
D21*
%TO.C,R38*%
X187736500Y-119002000D03*
X189561500Y-119002000D03*
%TD*%
D20*
%TO.C,TP-VGSW1*%
X77470000Y-190246000D03*
%TD*%
D11*
%TO.C,J15*%
X167640000Y-68580000D03*
D12*
X167640000Y-71120000D03*
X167640000Y-73660000D03*
%TD*%
D34*
%TO.C,LED3*%
X118237000Y-180301900D03*
X118237000Y-178600100D03*
%TD*%
D23*
%TO.C,C9*%
X102997000Y-165293000D03*
X102997000Y-167193000D03*
%TD*%
D36*
%TO.C,R26*%
X79652500Y-124460000D03*
X77827500Y-124460000D03*
%TD*%
D11*
%TO.C,J8*%
X182880000Y-68580000D03*
D12*
X182880000Y-71120000D03*
X182880000Y-73660000D03*
%TD*%
D20*
%TO.C,TP1*%
X127635000Y-175895000D03*
%TD*%
D46*
%TO.C,U7*%
X159004000Y-118795800D03*
X160274000Y-118795800D03*
X161544000Y-118795800D03*
X162814000Y-118795800D03*
X164084000Y-118795800D03*
X165354000Y-118795800D03*
X166624000Y-118795800D03*
X166624000Y-113868200D03*
X165354000Y-113868200D03*
X164084000Y-113868200D03*
X162814000Y-113868200D03*
X161544000Y-113868200D03*
X160274000Y-113868200D03*
X159004000Y-113868200D03*
%TD*%
D47*
%TO.C,SW4*%
X150205000Y-174100000D03*
D48*
X150205000Y-180600000D03*
X145705000Y-174100000D03*
X145705000Y-180600000D03*
%TD*%
D41*
%TO.C,C15*%
X115062000Y-91882000D03*
X115062000Y-89982000D03*
%TD*%
D38*
%TO.C,U3*%
X106473201Y-81154199D03*
X106473201Y-81804200D03*
X106473201Y-82454199D03*
X106473201Y-83104200D03*
X106473201Y-83754198D03*
X106473201Y-84404200D03*
X106473201Y-85054198D03*
X106473201Y-85704200D03*
X106473201Y-86354198D03*
X106473201Y-87004200D03*
X106473201Y-87654198D03*
X106473201Y-88304199D03*
X106473201Y-88954198D03*
X106473201Y-89604199D03*
X112373202Y-89604199D03*
X112373202Y-88954198D03*
X112373202Y-88304199D03*
X112373202Y-87654198D03*
X112373202Y-87004200D03*
X112373202Y-86354198D03*
X112373202Y-85704200D03*
X112373202Y-85054198D03*
X112373202Y-84404200D03*
X112373202Y-83754198D03*
X112373202Y-83104200D03*
X112373202Y-82454199D03*
X112373202Y-81804200D03*
X112373202Y-81154199D03*
D39*
X108323200Y-83179198D03*
X108323200Y-84279199D03*
X108323200Y-85379199D03*
X108323200Y-86479199D03*
X108323200Y-87579200D03*
X109423200Y-83179198D03*
D40*
X109423200Y-85379199D03*
D39*
X109423200Y-87579200D03*
X109423203Y-84279199D03*
X109423203Y-85379199D03*
X109423203Y-86479199D03*
X110523200Y-83179198D03*
X110523200Y-84279199D03*
X110523200Y-85379199D03*
X110523200Y-86479199D03*
X110523200Y-87579200D03*
%TD*%
D49*
%TO.C,CR1*%
X66929000Y-61000000D03*
X69215000Y-61000000D03*
%TD*%
D23*
%TO.C,C37*%
X153416000Y-146624000D03*
X153416000Y-148524000D03*
%TD*%
D50*
%TO.C,F2*%
X129237500Y-162179000D03*
X131112500Y-162179000D03*
%TD*%
D41*
%TO.C,C28*%
X85852000Y-115504000D03*
X85852000Y-113604000D03*
%TD*%
D29*
%TO.C,R43*%
X170434000Y-113360200D03*
X170434000Y-115185200D03*
%TD*%
%TO.C,R8*%
X74549000Y-169648500D03*
X74549000Y-171473500D03*
%TD*%
D20*
%TO.C,TP15*%
X182118000Y-61976000D03*
%TD*%
D23*
%TO.C,C3*%
X77597000Y-169611000D03*
X77597000Y-171511000D03*
%TD*%
D21*
%TO.C,R54*%
X175363500Y-168558000D03*
X177188500Y-168558000D03*
%TD*%
D41*
%TO.C,C16*%
X133096000Y-83957200D03*
X133096000Y-82057200D03*
%TD*%
D11*
%TO.C,J1*%
X99441000Y-186558000D03*
D12*
X99441000Y-189098000D03*
%TD*%
D29*
%TO.C,R58*%
X60579000Y-129262500D03*
X60579000Y-131087500D03*
%TD*%
D37*
%TO.C,R30*%
X78105000Y-130452500D03*
X78105000Y-128627500D03*
%TD*%
D36*
%TO.C,R14*%
X149145000Y-93894000D03*
X147320000Y-93894000D03*
%TD*%
D51*
%TO.C,U9*%
X155851413Y-145732360D03*
X156749438Y-146630386D03*
X157647464Y-147528412D03*
X158545489Y-148426437D03*
X159443515Y-149324463D03*
X160341541Y-150222488D03*
X161239566Y-151120514D03*
X162137592Y-152018540D03*
X163035618Y-152916565D03*
X163933643Y-153814591D03*
X164831669Y-154712616D03*
X165729694Y-155610642D03*
X166627720Y-156508668D03*
X167525746Y-157406693D03*
D52*
X170559234Y-156140972D03*
X171457259Y-155242947D03*
X172355285Y-154344921D03*
X173253311Y-153446895D03*
X174151336Y-152548870D03*
X175049362Y-151650844D03*
X175947387Y-150752818D03*
X176845413Y-149854793D03*
X177743439Y-148956767D03*
X178641464Y-148058742D03*
D51*
X179900114Y-145032325D03*
X179002089Y-144134299D03*
X178104063Y-143236273D03*
X177206037Y-142338248D03*
X176308012Y-141440222D03*
X175409986Y-140542197D03*
X174511961Y-139644171D03*
X173613935Y-138746145D03*
X172715909Y-137848120D03*
X171817884Y-136950094D03*
X170919858Y-136052068D03*
X170021833Y-135154043D03*
X169123807Y-134256017D03*
X168225781Y-133357992D03*
D53*
X164188202Y-145796000D03*
X165178151Y-144806050D03*
X166168101Y-143816101D03*
X165178151Y-146785949D03*
X166168101Y-145796000D03*
X167158050Y-144806050D03*
X166168101Y-147775899D03*
X167158050Y-146785949D03*
X168148000Y-145796000D03*
%TD*%
D54*
%TO.C,U1*%
X118477000Y-171375000D03*
X120777000Y-171375000D03*
X123077000Y-171375000D03*
D55*
X120777000Y-165175000D03*
%TD*%
D21*
%TO.C,R33*%
X175363500Y-165608000D03*
X177188500Y-165608000D03*
%TD*%
D20*
%TO.C,TP20*%
X173228000Y-61976000D03*
%TD*%
D24*
%TO.C,J19*%
X93060002Y-52705000D03*
X95060001Y-52705000D03*
X97060002Y-52705000D03*
X99060000Y-52705000D03*
%TD*%
D37*
%TO.C,R18*%
X136347200Y-83945100D03*
X136347200Y-82120100D03*
%TD*%
%TO.C,R36*%
X173536000Y-121819500D03*
X173536000Y-119994500D03*
%TD*%
D20*
%TO.C,TP4*%
X55753000Y-172593000D03*
%TD*%
D23*
%TO.C,C25*%
X94996000Y-87000000D03*
X94996000Y-88900000D03*
%TD*%
D36*
%TO.C,R15*%
X145184500Y-93894000D03*
X143359500Y-93894000D03*
%TD*%
D23*
%TO.C,C21*%
X101600000Y-87000000D03*
X101600000Y-88900000D03*
%TD*%
D11*
%TO.C,J9*%
X172720000Y-68580000D03*
D12*
X172720000Y-71120000D03*
X172720000Y-73660000D03*
%TD*%
D23*
%TO.C,C5*%
X120777000Y-174691000D03*
X120777000Y-176591000D03*
%TD*%
D24*
%TO.C,J12*%
X78550000Y-52705000D03*
X80549999Y-52705000D03*
X82550000Y-52705000D03*
X84549998Y-52705000D03*
%TD*%
D56*
%TO.C,X2*%
X188722000Y-55626000D03*
D57*
X184762000Y-55626000D03*
%TD*%
D56*
%TO.C,X1*%
X69850000Y-55880000D03*
D57*
X65890000Y-55880000D03*
%TD*%
D58*
%TO.C,U6*%
X52324000Y-109550000D03*
X53594000Y-109550000D03*
X54864000Y-109550000D03*
X56134000Y-109550000D03*
X57404000Y-109550000D03*
X58674000Y-109550000D03*
X59944000Y-109550000D03*
X61214000Y-109550000D03*
X62484000Y-109550000D03*
X63754000Y-109550000D03*
X65024000Y-109550000D03*
X66294000Y-109550000D03*
X67564000Y-109550000D03*
X68834000Y-109550000D03*
D59*
X70084000Y-106510000D03*
X70084000Y-105240000D03*
X70084000Y-103970000D03*
X70084000Y-102700000D03*
X70084000Y-101430000D03*
X70084000Y-100160000D03*
X70084000Y-98890000D03*
X70084000Y-97620000D03*
X70084000Y-96350000D03*
X70084000Y-95080000D03*
D58*
X68834000Y-92050000D03*
X67564000Y-92050000D03*
X66294000Y-92050000D03*
X65024000Y-92050000D03*
X63754000Y-92050000D03*
X62484000Y-92050000D03*
X61214000Y-92050000D03*
X59944000Y-92050000D03*
X58674000Y-92050000D03*
X57404000Y-92050000D03*
X56134000Y-92050000D03*
X54864000Y-92050000D03*
X53594000Y-92050000D03*
X52324000Y-92050000D03*
D60*
X58264000Y-103700000D03*
X58264000Y-102300000D03*
X58264000Y-100900000D03*
X59664000Y-103700000D03*
X59664000Y-102300000D03*
X59664000Y-100900000D03*
X61064000Y-103700000D03*
X61064000Y-102300000D03*
X61064000Y-100900000D03*
%TD*%
D23*
%TO.C,C23*%
X98476000Y-87000000D03*
X98476000Y-88900000D03*
%TD*%
D24*
%TO.C,J29*%
X77396599Y-201207001D03*
X75396600Y-201207001D03*
X73396599Y-201207001D03*
X71396601Y-201207001D03*
%TD*%
D61*
%TO.C,Q8*%
X86741000Y-190916560D03*
X86741000Y-191582040D03*
X86741000Y-192247520D03*
D62*
X86741000Y-192913000D03*
D61*
X89281000Y-192913000D03*
X89281000Y-192247520D03*
X89281000Y-191582040D03*
D63*
X89281000Y-190916560D03*
%TD*%
D36*
%TO.C,R21*%
X108204000Y-75692000D03*
X106379000Y-75692000D03*
%TD*%
D23*
%TO.C,C36*%
X151130000Y-146624000D03*
X151130000Y-148524000D03*
%TD*%
%TO.C,C18*%
X139319000Y-82088000D03*
X139319000Y-83988000D03*
%TD*%
D24*
%TO.C,J21*%
X107760000Y-52705000D03*
X109759999Y-52705000D03*
X111760000Y-52705000D03*
X113759998Y-52705000D03*
%TD*%
D21*
%TO.C,R52*%
X122277500Y-142494000D03*
X124102500Y-142494000D03*
%TD*%
D64*
%TO.C,F1*%
X93345000Y-192834500D03*
X93345000Y-190959500D03*
%TD*%
D36*
%TO.C,R1*%
X90447500Y-159639000D03*
X88622500Y-159639000D03*
%TD*%
D29*
%TO.C,R40*%
X193983000Y-126852500D03*
X193983000Y-128677500D03*
%TD*%
D36*
%TO.C,R24*%
X75207500Y-141605000D03*
X73382500Y-141605000D03*
%TD*%
D23*
%TO.C,C24*%
X136347200Y-87289200D03*
X136347200Y-89189200D03*
%TD*%
D37*
%TO.C,R12*%
X155956000Y-91488900D03*
X155956000Y-89663900D03*
%TD*%
D20*
%TO.C,TP8*%
X160528000Y-90170000D03*
%TD*%
D29*
%TO.C,R2*%
X93345000Y-182782200D03*
X93345000Y-184607200D03*
%TD*%
D41*
%TO.C,C14*%
X151892000Y-91542000D03*
X151892000Y-89642000D03*
%TD*%
D20*
%TO.C,TP16*%
X73202800Y-61315600D03*
%TD*%
D65*
%TO.C,L2*%
X108077000Y-160147000D03*
X104013000Y-160147000D03*
%TD*%
D37*
%TO.C,R29*%
X74930000Y-130452500D03*
X74930000Y-128627500D03*
%TD*%
%TO.C,R19*%
X94996000Y-82663000D03*
X94996000Y-80838000D03*
%TD*%
D35*
%TO.C,Q6*%
X53848000Y-80264000D03*
X55748000Y-80264000D03*
X54798000Y-78389000D03*
%TD*%
D66*
%TO.C,J4*%
X107652000Y-186532000D03*
D67*
X114852000Y-186532000D03*
D68*
X104502000Y-192532000D03*
X118002000Y-192532000D03*
%TD*%
D50*
%TO.C,F3*%
X92915500Y-167767000D03*
X94790500Y-167767000D03*
%TD*%
D69*
%TO.C,D1*%
X99517200Y-177165000D03*
X93268800Y-177165000D03*
%TD*%
D36*
%TO.C,R16*%
X112268000Y-93980000D03*
X110443000Y-93980000D03*
%TD*%
D20*
%TO.C,TP5*%
X93853000Y-163703000D03*
%TD*%
D37*
%TO.C,R46*%
X99314000Y-197000500D03*
X99314000Y-195175500D03*
%TD*%
%TO.C,R28*%
X85852000Y-119784500D03*
X85852000Y-117959500D03*
%TD*%
D29*
%TO.C,R37*%
X177981000Y-125328500D03*
X177981000Y-127153500D03*
%TD*%
D37*
%TO.C,R57*%
X60706000Y-124737500D03*
X60706000Y-122912500D03*
%TD*%
D70*
%TO.C,LED1*%
X84874100Y-159639000D03*
X86575900Y-159639000D03*
%TD*%
D20*
%TO.C,TP22*%
X77470000Y-195072000D03*
%TD*%
D23*
%TO.C,C19*%
X101600000Y-80904000D03*
X101600000Y-82804000D03*
%TD*%
D25*
%TO.C,Q1*%
X76865000Y-115890000D03*
X76865000Y-117790000D03*
X78740000Y-116840000D03*
%TD*%
D11*
%TO.C,J23*%
X127762000Y-168153000D03*
D12*
X127762000Y-165613000D03*
%TD*%
D71*
%TO.C,U10*%
X155874616Y-163587001D03*
X155874616Y-164236999D03*
X155874616Y-164887001D03*
X155874616Y-165536999D03*
X155874616Y-166187001D03*
X155874616Y-166836999D03*
X155874616Y-167487001D03*
X155874616Y-168136999D03*
X161625384Y-168136999D03*
X161625384Y-167487001D03*
X161625384Y-166836999D03*
X161625384Y-166187001D03*
X161625384Y-165536999D03*
X161625384Y-164887001D03*
X161625384Y-164236999D03*
X161625384Y-163587001D03*
%TD*%
D29*
%TO.C,R47*%
X82296000Y-195175500D03*
X82296000Y-197000500D03*
%TD*%
D36*
%TO.C,R20*%
X144676500Y-74844000D03*
X142851500Y-74844000D03*
%TD*%
D30*
%TO.C,C32*%
X181222000Y-118875000D03*
X183122000Y-118875000D03*
%TD*%
D29*
%TO.C,R50*%
X192913000Y-105894500D03*
X192913000Y-107719500D03*
%TD*%
D30*
%TO.C,C33*%
X181222000Y-116716000D03*
X183122000Y-116716000D03*
%TD*%
D72*
%TO.C,J30*%
X93392000Y-199263000D03*
X88392000Y-199263000D03*
%TD*%
D11*
%TO.C,J14*%
X177800000Y-68580000D03*
D12*
X177800000Y-71120000D03*
X177800000Y-73660000D03*
%TD*%
D73*
%TO.C,IC1*%
X79068676Y-177564415D03*
X79068676Y-178064541D03*
X79068676Y-178564667D03*
X79068676Y-179064793D03*
X79068676Y-179564919D03*
X79068676Y-180065045D03*
X79068676Y-180565171D03*
X79068676Y-181065297D03*
X79068676Y-181565423D03*
X79068676Y-182065549D03*
X79068676Y-182565675D03*
X79068676Y-183065801D03*
D74*
X79710661Y-183718708D03*
X80210787Y-183718708D03*
X80710913Y-183718708D03*
X81211039Y-183718708D03*
X81711165Y-183718708D03*
X82211291Y-183718708D03*
D73*
X82853276Y-183065801D03*
X82853276Y-182565675D03*
X82853276Y-182065549D03*
X82853276Y-181565423D03*
X82853276Y-181065297D03*
X82853276Y-180565171D03*
X82853276Y-180065045D03*
X82853276Y-179564919D03*
X82853276Y-179064793D03*
X82853276Y-178564667D03*
X82853276Y-178064541D03*
X82853276Y-177564415D03*
D74*
X82211291Y-176911508D03*
X81711165Y-176911508D03*
X81211039Y-176911508D03*
X80710913Y-176911508D03*
X80210787Y-176911508D03*
X79710661Y-176911508D03*
D75*
X80260952Y-178385108D03*
X81661000Y-178385108D03*
X80260952Y-180315108D03*
X81661000Y-180315108D03*
X80260952Y-182245000D03*
X81661000Y-182245000D03*
D76*
X79148476Y-177002607D03*
X79148476Y-183627609D03*
X82773476Y-183627609D03*
X82773476Y-177002607D03*
%TD*%
D23*
%TO.C,C35*%
X153924000Y-178628000D03*
X153924000Y-180528000D03*
%TD*%
D11*
%TO.C,J16*%
X187960000Y-68580000D03*
D12*
X187960000Y-71120000D03*
X187960000Y-73660000D03*
%TD*%
D20*
%TO.C,TP13*%
X122682000Y-76962000D03*
%TD*%
D77*
%TO.C,SW1*%
X89190000Y-120090000D03*
D48*
X89190000Y-113590000D03*
X93690000Y-120090000D03*
X93690000Y-113590000D03*
%TD*%
D20*
%TO.C,TP2*%
X87757000Y-177673000D03*
%TD*%
D21*
%TO.C,R32*%
X175363500Y-162658000D03*
X177188500Y-162658000D03*
%TD*%
D20*
%TO.C,TP17*%
X62738000Y-61214000D03*
%TD*%
D25*
%TO.C,Q3*%
X192235000Y-121100000D03*
X192235000Y-123000000D03*
X194110000Y-122050000D03*
%TD*%
D23*
%TO.C,C13*%
X97409000Y-158689000D03*
X97409000Y-160589000D03*
%TD*%
D11*
%TO.C,J24*%
X83820000Y-66040000D03*
D12*
X81280000Y-66040000D03*
%TD*%
D77*
%TO.C,SW2*%
X73950000Y-81990000D03*
D48*
X73950000Y-75490000D03*
X78450000Y-81990000D03*
X78450000Y-75490000D03*
%TD*%
D30*
%TO.C,C30*%
X52136000Y-115316000D03*
X54036000Y-115316000D03*
%TD*%
D37*
%TO.C,R42*%
X188976000Y-158900500D03*
X188976000Y-157075500D03*
%TD*%
D41*
%TO.C,C10*%
X112649000Y-167193000D03*
X112649000Y-165293000D03*
%TD*%
D11*
%TO.C,J13*%
X63500000Y-66040000D03*
D12*
X66040000Y-66040000D03*
X68580000Y-66040000D03*
X71120000Y-66040000D03*
X73660000Y-66040000D03*
%TD*%
D29*
%TO.C,R4*%
X86741000Y-169648500D03*
X86741000Y-171473500D03*
%TD*%
D77*
%TO.C,SW3*%
X192822000Y-158750000D03*
D48*
X192822000Y-152250000D03*
X197322000Y-158750000D03*
X197322000Y-152250000D03*
%TD*%
D34*
%TO.C,LED2*%
X93345000Y-188341000D03*
X93345000Y-186639200D03*
%TD*%
D26*
%TO.C,C7*%
X67945000Y-172544000D03*
X67945000Y-169594000D03*
%TD*%
D20*
%TO.C,TP18*%
X177800000Y-61976000D03*
%TD*%
%TO.C,TP6*%
X64008000Y-198882000D03*
%TD*%
D36*
%TO.C,R17*%
X108608500Y-93980000D03*
X106783500Y-93980000D03*
%TD*%
D49*
%TO.C,CR2*%
X185857000Y-60750000D03*
X188143000Y-60750000D03*
%TD*%
D21*
%TO.C,R10*%
X105132500Y-173761400D03*
X106957500Y-173761400D03*
%TD*%
D43*
%TO.C,U5*%
X74091800Y-134659999D03*
X74091800Y-135159998D03*
X74091800Y-135660000D03*
X74091800Y-136159999D03*
X74091800Y-136659998D03*
X74091800Y-137160000D03*
X74091800Y-137659999D03*
D42*
X74915900Y-138484099D03*
X75415899Y-138484099D03*
X75915901Y-138484099D03*
X76415900Y-138484099D03*
X76915899Y-138484099D03*
X77415901Y-138484099D03*
X77915900Y-138484099D03*
D43*
X78740000Y-137659999D03*
X78740000Y-137160000D03*
X78740000Y-136659998D03*
X78740000Y-136159999D03*
X78740000Y-135660000D03*
X78740000Y-135159998D03*
X78740000Y-134659999D03*
D42*
X77915900Y-133835899D03*
X77415901Y-133835899D03*
X76915899Y-133835899D03*
X76415900Y-133835899D03*
X75915901Y-133835899D03*
X75415899Y-133835899D03*
X74915900Y-133835899D03*
D44*
X76415900Y-136159999D03*
%TD*%
D21*
%TO.C,R27*%
X77192500Y-141605000D03*
X79017500Y-141605000D03*
%TD*%
D37*
%TO.C,R25*%
X72390000Y-117752500D03*
X72390000Y-115927500D03*
%TD*%
D20*
%TO.C,TP11*%
X72847200Y-71450200D03*
%TD*%
D41*
%TO.C,C26*%
X82550000Y-141920000D03*
X82550000Y-140020000D03*
%TD*%
D29*
%TO.C,R34*%
X179251000Y-115131000D03*
X179251000Y-116956000D03*
%TD*%
%TO.C,R44*%
X153924000Y-174093500D03*
X153924000Y-175918500D03*
%TD*%
M02*
